<?xml version="1.0" encoding="UTF-8" standalone="no"?>
<svg
   xmlns:dc="http://purl.org/dc/elements/1.1/"
   xmlns:cc="http://creativecommons.org/ns#"
   xmlns:rdf="http://www.w3.org/1999/02/22-rdf-syntax-ns#"
   xmlns:svg="http://www.w3.org/2000/svg"
   xmlns="http://www.w3.org/2000/svg"
   xmlns:sodipodi="http://sodipodi.sourceforge.net/DTD/sodipodi-0.dtd"
   xmlns:inkscape="http://www.inkscape.org/namespaces/inkscape"
   width="201mm"
   height="241.96600341796875mm"
   viewBox="-100.5 -120.98300170898438 201 241.96600341796875"
   version="1.1"
   id="svg3957"
   sodipodi:docname="basePrincipal_lisa.svg"
   inkscape:version="0.92.3 (2405546, 2018-03-11)">
  <metadata
     id="metadata3963">
    <rdf:RDF>
      <cc:Work
         rdf:about="">
        <dc:format>image/svg+xml</dc:format>
        <dc:type
           rdf:resource="http://purl.org/dc/dcmitype/StillImage" />
        <dc:title>svgOutput</dc:title>
      </cc:Work>
    </rdf:RDF>
  </metadata>
  <defs
     id="defs3961" />
  <sodipodi:namedview
     pagecolor="#ffffff"
     bordercolor="#666666"
     borderopacity="1"
     objecttolerance="10"
     gridtolerance="10"
     guidetolerance="10"
     inkscape:pageopacity="0"
     inkscape:pageshadow="2"
     inkscape:window-width="1366"
     inkscape:window-height="715"
     id="namedview3959"
     showgrid="false"
     inkscape:zoom="0.60191679"
     inkscape:cx="431.51195"
     inkscape:cy="457.25825"
     inkscape:window-x="-8"
     inkscape:window-y="-8"
     inkscape:window-maximized="1"
     inkscape:current-layer="g5555"
     inkscape:snap-others="false"
     inkscape:object-nodes="false"
     inkscape:snap-nodes="false"
     inkscape:snap-bbox="true" />
  <title
     id="title3951">svgOutput</title>
  <desc
     id="desc3953">made with tinkercad</desc>
  <g
     id="g5552">
    <g
       id="g5555">
      <g
         id="g5558">
        <g
           id="g5561">
          <g
             id="g5564">
            <g
               id="g5567">
              <path
                 id="path5355"
                 transform="matrix(0.26458333,0,0,0.26458333,-100.5,-120.983)"
                 style="fill:none;stroke:#0000ff;stroke-width:0.03779527mm"
                 d="m 383.8457,3.7792969 -4.0039,0.046875 -3.5,0.039063 -7.48242,0.4921875 -7.44922,0.8886719 -7.38868,1.2890624 -5.14062,1.1816407 -2.16992,0.5 -7.20703,2.0742191 -7.08789,2.453125 -6.94532,2.833984 -6.78515,3.197266 -0.76758,0.414062 -5.83594,3.146485 -2.38281,1.455078 -4.01953,2.453125 -2.03516,1.398437 -1.20703,0.830078 -2.93945,2.019532 -5.94532,4.570312 -4.90429,4.210938 -0.78906,0.675781 -0.90235,0.863281 -4.52148,4.318359 -5.13477,5.464844 -3.50976,4.158203 -1.32813,1.576172 -4.52539,5.982422 -4.19531,6.216797 -1.02149,1.705078 -2.83398,4.728516 -3.50195,6.632812 -0.39063,0.84375 -1.51172,3.275391 -1.24219,2.691406 -2.77539,6.966797 -1.96484,5.824223 -0.43555,1.28515 -2.00976,7.22461 -1.54688,6.9707 -0.0781,0.35157 -1.22461,7.40039 -0.83203,7.45312 -0.0156,0.27539 -0.24219,4.24414 -0.14062,2.47266 -0.006,0.1543 -0.0234,0.36914 -0.0234,7.06445 v 0.0625 0.0176 l -0.002,0.26562 v 0.041 l 0.0391,0.78906 0.31641,6.27539 0.0215,0.38477 0.0312,0.26953 0.0215,0.29297 0.72656,6.96289 0.20508,1.29687 0.0312,0.1836 0.18555,1.15429 0.43945,2.66407 0.58008,3.45898 0.0449,0.26758 -0.0176,0.008 -4.03125,1.70117 -0.16601,0.0703 -1.25196,0.67382 -3.34179,1.67774 -2.81641,1.35351 -2.74805,1.21094 -2.58789,1.05664 -1.94726,0.79492 -0.6211,0.32422 -3.30664,1.72852 -3.46094,1.76758 -3.98828,2.00195 -0.20312,0.10156 -4.52149,2.52539 -1.30664,0.73047 -5.13476,2.85742 -2.67774,1.57227 -1.11328,0.63867 -0.32226,0.20508 -0.3711,0.23242 -4.55664,2.88086 -2.24804,1.42188 -3.30079,2.05273 -0.83007,0.55859 -6.5293,4.39258 -3.22266,2.17188 -2.73437,2.00195 -5.67383,4.15625 -1.88867,1.37305 -0.0996,0.084 -0.89649,0.75391 -3.5371,2.76562 -5.45118,4.25977 -2.5332,2.08984 -5.63477,4.64844 -1.07031,0.88281 -0.53515,0.42383 -0.1543,0.14453 -0.10156,0.0957 -0.39453,0.36524 -2.59766,2.29297 -6.1582,5.57226 -1.0879,1.05469 -2.19726,2.12891 -0.80469,0.88281 -2.24219,2.45508 -0.39062,0.42773 -2.15234,2.24219 -2.21094,2.16406 -2.74219,2.58203 -1.08008,0.96289 -1.51953,1.63477 -1.47266,1.58398 -0.0156,0.0176 -0.0273,0.0293 -0.0117,0.0117 -1.36719,-0.90039 -1.12891,-0.74219 -0.0449,-0.0293 -1.3164,-0.85547 -0.43164,-0.28125 -0.74024,-0.47265 -0.92578,-0.58789 -4.83008,-2.57618 -5.00781,-2.21093 -3.54492,-1.26367 -1.613284,-0.57422 -5.28125,-1.44727 -5.373047,-1.05078 -3.212891,-0.38086 -2.226562,-0.26562 -5.46875,-0.2461 -5.472657,0.16406 -2.314453,0.24219 -3.132812,0.32813 -5.388672,0.9707 -5.302734,1.37109 -1.65625,0.5625 -3.529297,1.19532 -5.042969,2.14062 -4.867188,2.50977 -2.041015,1.25 -2.460938,1.50781 -0.166015,0.10156 -4.441407,3.20117 -4.191406,3.52344 -3.921875,3.82422 -0.298828,0.33789 -3.326172,3.76758 -0.550781,0.72461 -2.755859,3.63672 -2.978516,4.5957 -2.626953,4.80469 -1.111328,2.44531 -1.1523441,2.53906 -0.9785157,2.66211 -0.9121093,2.47852 -1.5,5.26758 -0.5214844,2.5332 -0.5820313,2.83008 -0.7070312,5.42773 -0.2988281,5.46875 0.035156,1.75391 0.074219,3.72265 0.5136719,5.45118 0.9199218,5.39648 0.2246094,0.91016 1.0898438,4.4082 1.6640624,5.07226 0.041016,0.12696 2.0898441,5.06445 0.40625,0.81055 2.050781,4.08203 2.814453,4.69727 3.15625,4.4746 1.830078,2.22657 1.648438,2.00195 1.443359,1.50977 2.34375,2.44921 4.066406,3.66602 4.326172,3.35547 3.773438,2.49805 0.792968,0.52539 0.177735,0.0996 0.777343,0.43554 0.765626,0.42383 2.941406,1.59961 0.09766,0.0527 0.07422,0.041 1.533203,0.80859 -0.0078,0.0215 -0.02539,0.0664 -1.560547,4.15625 -1.892578,6.31055 -0.314453,0.85742 -0.01953,0.082 -0.226562,0.89454 -1.763672,5.61523 -0.378906,1.32031 -0.72461,2.52344 -0.267578,1.00195 -1.007812,4.12696 -0.267578,1.08789 -1.251953,5.01562 -0.658204,2.58399 -0.251953,1.45312 -0.544922,2.65039 -0.574218,2.68946 -0.566407,2.65234 -0.08398,0.39062 -0.810547,4.15821 -0.859375,4.375 -0.28125,1.72265 -0.04883,0.37696 -0.269531,1.80468 -0.960938,6.44141 -0.804687,5.43555 -0.238282,2.02539 -0.169921,1.57812 -0.0078,0.0645 -1.292969,14.24609 -0.175781,1.00391 -0.0098,0.16796 -0.33789,5.74415 -0.09961,1.71093 -0.291015,4.14649 -0.02734,1.25586 -0.06055,2.62304 -0.07617,3.25782 -0.02539,1.10351 -0.05273,4.56055 0.09766,8.53906 0.06445,3.08398 0.09961,4.11915 0.357422,6.29687 0.105469,1.85352 0.4375,6.72851 0.68164,6.90039 0.541016,5.47656 0.259766,2.22852 0.167968,1.28516 0.109375,1.08593 0.207032,1.33204 0.333984,2.1289 0.208984,1.39844 0.04687,0.22656 0.0625,0.31836 0.933594,4.63867 0.539063,4.78907 0.134765,1.28515 0.714844,3.86914 0.189453,0.89844 0.126953,0.60938 0.109375,0.5957 0.330078,1.54687 1.070313,5.03125 0.503906,2.68555 0.421875,1.66211 0.08594,0.33398 0.763672,3.01563 1.142578,4.49805 1.720703,7.04492 0.410156,1.35547 0.121094,0.39843 0.662109,2.18555 0.507813,1.66797 0.238281,0.97852 0.304687,0.85742 1.833985,6.33593 1.552734,4.25391 -0.277344,0.15234 -0.589843,0.32422 -0.214844,0.11719 -0.427735,0.23242 -0.992187,0.56055 -2.0625,1.16406 -0.535156,0.30664 -0.212891,0.12305 -0.93164,0.54101 -4.449219,3.04297 -4.214844,3.35938 -3.957031,3.6582 -1.714844,1.83594 -1.355469,1.44922 -0.609375,0.65429 -3.378906,4.19532 -3.070312,4.43359 -2.732422,4.64453 -0.767578,1.55274 -1.621094,3.27734 -1.9453128,4.78906 -0.083984,0.20313 -1.65625,5.1289 -0.5078125,2.08399 -0.7695313,3.15039 -0.8945312,5.31445 -0.5,5.36719 -0.033203,1.64844 -0.076172,3.74219 0.2871093,5.38085 0.6777344,5.34375 0.203125,1.01368 0.8613282,4.27148 1.4511718,5.18945 1.0410156,2.88672 0.7851563,2.18555 0.421875,0.94726 1.7695315,3.97657 2.544922,4.75 2.886718,4.55078 1.634766,2.20508 1.574219,2.12304 3.519531,4.08203 0.34375,0.34376 3.464844,3.47265 4.074218,3.52735 2.597657,1.93164 1.726562,1.28515 3.617188,2.30274 0.929687,0.59179 4.744141,2.55469 4.919922,2.19922 4.886719,1.77148 0.18164,0.0664 5.185547,1.45898 5.283203,1.07618 4.830078,0.62109 0.515625,0.0664 5.38086,0.29492 5.386718,-0.0977 4.199219,-0.38476 1.167969,-0.10743 5.316406,-0.88085 5.238281,-1.26954 3.757816,-1.20507 1.375,-0.44336 4.99804,-2.01758 4.83399,-2.37695 0.92969,-0.54493 0.74609,-0.44336 2.59766,-1.5664 0.01,-0.006 0.20117,-0.1211 0.10547,-0.0625 0.13281,-0.082 0.45899,-0.2832 0.21484,-0.13477 0.73633,-0.45703 0.0156,0.0176 0.0469,0.0547 2.71875,3.18945 4.74024,4.8418 0.61914,0.7168 0.77539,0.72656 3.95703,4.1289 0.74804,0.7793 0.10157,0.10547 2.11133,2.02539 0.32031,0.18555 0.16211,0.35351 1.52148,1.3711 3.07617,2.91992 1.66602,1.58008 2.9375,2.64453 0.5293,0.47656 0.49218,0.44336 2.56446,2.20117 0.45898,0.39453 4.21289,3.61914 4.9707,4.1211 2.03516,1.68945 1.87305,1.50195 1.92969,1.50196 1.82226,1.41797 2.14648,1.6289 1.80079,1.36719 0.8457,0.61328 1.48437,1.14844 4.40235,2.99414 2.97851,2.11914 4.68164,3.33203 2.73243,1.87109 0.96289,0.51954 2.51758,1.51562 3.74023,2.25586 0.8457,0.53516 6.34571,4.02343 7.32421,4.34571 1.8125,0.99023 3.56836,1.94727 2.57422,1.38476 0.67188,0.36133 2.5332,1.36133 5.46484,2.5918 0.66797,0.33007 7.0293,3.47461 7.84961,3.46875 0.60156,0.25391 4.29102,1.8125 4.45312,1.82617 2.08985,0.85742 0.96093,0.39453 1.4375,0.5293 2.24805,0.83594 1.47656,0.54687 1.73047,0.64258 1.5,0.53125 3.59571,1.27344 3.26562,1.1582 3.91406,1.23047 0.0117,0.004 6.26172,2.16211 2.66797,0.72851 3.16992,0.83985 0.72852,0.22265 2.64062,0.80469 0.0899,0.0273 3.90429,0.95508 3.8418,0.99805 2.71094,0.73828 2.84179,0.77148 1.82032,0.40625 0.1582,0.0332 0.11328,0.0195 2.00586,0.32812 1.6582,0.30274 4.07617,0.92969 3.29883,0.7539 2.27735,0.42774 0.0527,0.006 1.30859,0.17968 0.33008,0.15235 0.47266,0.0898 1.41992,0.26758 0.96289,0.18164 6.9043,0.99805 1.05664,0.21484 0.97266,0.0918 4.16601,0.64843 3.51563,0.54493 1.77148,0.23828 1.48047,0.20117 h 0.002 l 0.008,0.35156 0.0117,0.47461 0.006,0.27539 0.002,0.0547 v 0.008 l 0.0117,0.35742 0.59766,6.17188 0.13086,1.33594 0.0684,0.73437 0.19922,2.05274 1.92773,8.73437 0.10352,0.47266 0.14453,0.6582 0.53711,1.49219 2.6875,7.48828 0.008,0.0234 2.26758,4.35937 1.58398,3.04883 0.27539,0.5293 0.0234,0.0332 4.41992,6.125 0.0606,0.0859 0.32813,0.4414 5.0039,5.00586 0.32813,0.33399 3.45703,2.42382 1.52148,1.06446 0.3086,0.2168 0.21679,0.15039 0.17969,0.082 0.19531,0.125 0.17578,0.082 3.29297,1.47851 2.16407,0.97266 5.52343,1.24609 0.39453,0.0879 1.50782,0.0234 4.41601,0.0684 4.9375,-0.9043 0.35352,-0.0664 4.81445,-1.8125 0.34375,-0.12891 h 0.002 l 0.61524,-0.35937 2.16211,-1.26172 1.83984,-1.07422 0.3125,-0.18359 0.0156,-0.008 4.34375,-3.53515 0.30859,-0.25196 3.99805,-4.30859 0.28515,-0.30859 2.21485,-3.24805 1.74609,-2.56055 0.78711,-1.15429 0.33984,-0.49805 3.95118,-8.31836 0.14648,-0.30859 0.0801,-0.17188 0.0547,-0.11328 0.002,-0.004 1.51953,-4.91211 1.4082,-4.55078 0.0117,-0.008 0.1211,-0.38867 0.0879,-0.28711 1.48633,-8.08203 0.14062,-1.66016 0.041,-0.50391 0.0117,-0.0977 0.5,-5.875 0.0176,-0.19922 0.0117,-0.36523 0.002,-0.0566 0.0215,-0.86915 0.0117,-0.32226 h 0.0117 l 0.0859,-0.0117 2.90235,-0.33789 1.58984,-0.18359 1.3418,-0.28711 3.53711,-0.66993 3.08984,-0.54492 3.0293,-0.39843 2.89258,-0.32032 1.8789,-0.20703 3.91016,-0.75 0.5332,-0.10156 8.29102,-1.72852 4.11133,-0.85547 0.002,-0.002 5.28125,-1.29883 2.9375,-0.72265 4.01758,-0.89453 0.084,-0.0195 4.01367,-1.23632 8.07813,-2.53321 3.30664,-1.01953 3.61523,-1.11523 4.64063,-1.32227 0.57617,-0.16601 6.17578,-2.32618 0.4707,-0.18164 5.44336,-2.09179 4.82227,-1.85352 2.82812,-1.08594 2.38868,-0.96484 1.5039,-0.60938 7.70508,-3.43359 3.69336,-1.64648 0.12891,-0.0566 0.0312,-0.0156 2.41992,-1.16797 2.74414,-1.32617 6.09765,-3.08789 3.80274,-2.08594 0.92383,-0.50586 6.31445,-3.48242 8.66797,-5.11133 2.41016,-1.32812 2.02343,-1.11524 2.53125,-1.63476 3.10938,-2.00781 0.44922,-0.29493 6.53711,-4.31445 0.83007,-0.54297 5.51758,-3.61523 5.57031,-3.96094 2.60352,-2.03516 1.3418,-1.01367 0.35547,-0.26758 0.0918,-0.0703 0.17578,-0.13281 1.95899,-1.49805 5.48828,-4.11133 1.20508,-1.13281 3.17383,-2.4707 6.67382,-5.79688 1.04102,-0.90429 5.11914,-4.5293 4.30859,-3.83594 1.81641,-1.80469 2.57422,-2.55468 1.69531,-1.85157 2.79492,-3.05468 2.20313,-2.16797 2.73242,-2.5918 1.08203,-0.96875 2.39844,-2.59961 0.57422,-0.62109 0.0234,-0.0254 0.0254,-0.0254 0.0117,-0.0117 2.68359,1.49219 1.84765,1.01562 0.7793,0.42188 0.97461,0.51953 5.05274,2.23047 3.51171,1.24609 1.69336,0.60156 5.32813,1.45117 5.42383,1.04688 3.03515,0.35351 2.45313,0.28516 5.51758,0.22656 5.52148,-0.18945 1.98828,-0.2168 3.5,-0.38281 5.43164,-1.01367 5.33985,-1.41406 1.20898,-0.41797 4.01172,-1.39258 5.06836,-2.19531 4.88672,-2.57032 1.51562,-0.94531 3.16992,-1.97851 2.15821,-1.58789 2.29101,-1.68555 4.19532,-3.5957 3.66601,-3.6543 0.2461,-0.24609 3.60937,-4.17969 1.56836,-2.11914 1.71484,-2.32227 2.94532,-4.66992 2.58789,-4.88086 1.57812,-3.60938 0.63281,-1.45117 0.59766,-1.70117 1.23242,-3.50976 1.43164,-5.3379 0.66016,-3.48046 0.36914,-1.94727 0.61914,-5.48633 0.20898,-5.51953 -0.0937,-2.52734 -0.10742,-2.89649 -0.59765,-5.39258 -0.99414,-5.33593 -0.48829,-1.85547 -0.89453,-3.39063 -1.3457,-3.91406 -0.41797,-1.21875 L 748.8418,645 l -1.02344,-1.9707 -1.47852,-2.84571 -2.8457,-4.62109 -3.17773,-4.39648 -3.04493,-3.61719 -0.45117,-0.53711 -0.90039,-0.91992 -2.89062,-2.96094 -4.06641,-3.59375 -4.32031,-3.28516 -0.91016,-0.59179 -0.92187,-0.5918 -2.3711,-1.49219 -0.36523,-0.23047 -1.37305,-0.86523 -0.006,-0.002 0.0137,-0.041 0.11914,-0.36914 0.0508,-0.15625 1.56054,-4.96289 1.69727,-5.4043 1,-3.18164 0.3125,-1.0625 0.19922,-0.71289 0.39062,-1.40234 1.2793,-4.58789 0.32226,-1.67383 1.15626,-4.49219 0.88281,-3.32617 0.0195,-0.0723 0.26172,-0.98632 0.11914,-0.5918 0.15039,-0.64844 0.0391,-0.16406 0.10156,-0.48438 0.0312,-0.15039 1.78711,-8.45703 0.72657,-3.92578 0.92382,-4.99609 0.79688,-4.02539 0.79101,-5.71094 0.0977,-0.74805 0.77734,-5.88476 0.15821,-0.83399 0.14453,-0.7539 0.91992,-8.00782 0.0234,-0.19922 0.0801,-0.85351 0.0957,-0.81445 0.19531,-2.83204 0.16016,-2.31445 0.17578,-1.84961 0.27344,-3.75 0.20117,-2.86914 0.0645,-0.9082 0.16992,-4.9961 0.22266,-9.57617 0.041,-1.72461 0.11914,-3.09375 -0.082,-4.94336 -0.41796,-5.71875 -0.0899,-1.20898 -0.0488,-2.85352 0.0703,-4.89843 -0.20703,-4.0918 -0.24024,-2.42774 -0.63086,-6.38476 -0.75586,-6.94922 -0.22265,-2.14844 -0.22266,-2.13281 -1.6543,-12.17383 -0.1582,-1.17383 -0.26172,-1.94726 -0.01,-0.0449 -0.92188,-4.65235 -0.20508,-1.0957 -1.08594,-5.86133 -0.40039,-1.8789 -1.18554,-5.59376 -0.95899,-4.11523 -1.59765,-5.77344 -0.0117,-0.0449 -1.33594,-5.66992 -0.22266,-0.80273 -0.89648,-3.25196 -1.68164,-4.64453 -0.34766,-1.06641 -0.55664,-1.70507 -0.56836,-1.93164 -0.24804,-0.84375 -0.92774,-3.45313 -0.32226,-1.35547 -0.6211,-1.79492 -0.70898,-2.05078 -0.008,-0.0234 -0.0137,-0.0391 -0.006,-0.0156 0.3711,-0.22265 2.27344,-1.37305 0.21093,-0.12695 0.89258,-0.54492 0.66992,-0.40821 0.74805,-0.46484 0.93555,-0.58594 4.4414,-3.27344 4.1836,-3.59375 3.60937,-3.60546 0.29492,-0.29493 2.80664,-3.2539 0.79493,-0.92383 3.27734,-4.43555 2.93555,-4.67187 2.58203,-4.87696 0.25,-0.57422 1.95703,-4.47851 0.58203,-1.66406 1.24023,-3.54297 1.42774,-5.32617 0.0879,-0.46875 0.93945,-4.95118 0.61524,-5.48437 0.1914,-5.04492 0.0156,-0.46485 -0.21485,-5.61328 -0.63867,-5.58203 -0.73828,-3.82031 -0.32812,-1.69336 -1.48047,-5.41992 -1.11914,-3.13672 -0.76758,-2.15039 -1.37109,-3.08203 -0.91602,-2.05078 -2.67187,-4.94141 -3.03711,-4.72266 -2.84961,-3.76562 -0.54102,-0.71485 -3.32617,-3.75781 -0.39649,-0.44726 -4.02929,-3.91211 -4.32031,-3.59571 -4.29493,-3.05273 -0.28125,-0.20117 -2.1582,-1.29688 -2.6582,-1.59765 -5.01953,-2.52149 -5.19532,-2.13086 -2.60937,-0.84375 -2.73633,-0.88281 -5.45703,-1.32031 -5.54492,-0.89453 -1.74219,-0.14844 -3.85547,-0.32813 -5.61914,-0.043 -5.60156,0.38281 -0.4043,0.0586 -5.15625,0.75 -5.48047,1.22852 -4.84375,1.48242 -0.52539,0.16211 -5.23242,2.04492 -5.06055,2.44141 -0.9707,0.5625 -0.95117,0.56054 -2.74219,1.63672 -0.18359,0.10938 -1.21485,0.73828 -0.082,0.0508 -0.008,0.004 -0.0957,0.0566 0.002,-0.0606 0.004,-0.0352 v -0.0176 l -0.004,-0.002 -0.2168,-0.13672 -9.51367,-9.5332 -4.16992,-4.08398 -1.70508,-1.67188 -0.58008,-0.56836 -0.14844,-0.2793 -0.32421,-0.30273 -6.75,-5.93555 -5.97266,-5.25 -3.57813,-3.14648 -0.50976,-0.44727 -0.21289,-0.14062 -0.47461,-0.39063 -5.15039,-3.96289 -5.00391,-3.85156 -0.55078,-0.42383 -6.9375,-5.33789 -0.23437,-0.16797 -0.5586,-0.40429 -0.0117,-0.006 -0.0391,-0.0254 -0.47852,-0.32227 -2.04687,-1.37109 -2.80273,-1.87891 -2.375,-1.59375 -10.64454,-7.13672 -0.36328,-0.26172 -0.2832,-0.17578 -0.28125,-0.17773 -3.9082,-2.26368 -1.07032,-0.62109 -6.41992,-3.7207 -7.64843,-4.43555 -0.91602,-0.54297 -0.0488,-0.0156 -0.0586,-0.0176 -0.77539,-0.39258 -0.60352,-0.32617 -2.40039,-1.19727 -9.67578,-4.83203 -1.3418,-0.66992 -0.0566,-0.0293 -4.49609,-2.01172 -5.82617,-2.70117 -5.10352,-2.2832 -0.26562,-0.11914 0.0137,-0.084 0.0117,-0.0605 0.24218,-1.47266 v -0.01 l 0.0645,-0.38477 0.91211,-5.6543 0.0332,-0.21093 0.0742,-0.46875 0.26172,-1.69922 0.79101,-8.55274 0.14063,-4.55078 0.12304,-4.03125 -0.19921,-7.5 -0.32032,-3.94922 -0.28515,-3.52539 -1.00196,-7.43554 -0.59375,-3.12696 -0.26367,-1.39258 -0.54101,-2.84961 -1.79493,-7.2832 -1.625,-5.34765 -0.55468,-1.830082 -2.5625,-7.048829 -2.81055,-6.603515 -0.12695,-0.298828 -3.30274,-6.734375 -1.89844,-3.394532 -1.76171,-3.152343 -1.19922,-1.900391 -2.80664,-4.441406 -4.33789,-6.119141 -3.90235,-4.919922 -0.75781,-0.957031 -4.9707,-5.615234 -5.26563,-5.345703 -5.53906,-5.052735 -0.41992,-0.34375 -5.38672,-4.40625 -6.05078,-4.429687 -4.04492,-2.640625 -2.23633,-1.460938 -1.22656,-0.710937 -5.26758,-3.048828 -6.68164,-3.402344 -0.0703,-0.0293 -6.78711,-3.013672 L 427.9668,11.628906 420.82422,9.3378906 413.57031,7.4375 410.80469,6.8691406 406.22266,5.9257812 398.80469,4.8105469 391.33984,4.09375 Z" />
            </g>
          </g>
        </g>
      </g>
    </g>
  </g>
  <path
     style="fill:none;stroke:#0000ff;stroke-width:0.03779527mm"
     d="m 322.36133,26.474609 0.5625,0.08789 4.10937,0.78125 0.52344,0.228516 3.78125,1.78125 0.44531,0.353515 1.61719,1.337891 1.60156,1.328125 0.3418,0.455078 2.45898,3.382813 0.21289,0.527343 1.00391,2.533203 0.5332,1.351563 0.0742,0.566406 0.52735,4.148438 -0.15235,1.511718 -0.0215,0.16211 -0.26758,2.105469 -0.0703,0.550781 -0.68555,1.945312 -1.04687,2.642578 -0.34766,0.496094 -0.83594,1.193359 -1.67187,2.300782 -1.6543,1.36914 -0.53516,0.441407 -1.59961,1.304687 -2.57031,1.210938 -1.89258,0.824218 -2.79296,0.533204 -2.04493,0.283203 -2.83593,-0.179688 -1.21094,-0.167969 -0.83203,-0.115234 -2.70313,-0.876953 -1.89258,-0.824219 -2.40234,-1.523437 -1.59766,-1.304688 -1.94531,-2.070312 -1.18554,-1.689453 -0.38868,-0.708985 -0.97851,-1.783203 -0.6875,-1.947266 -0.48828,-1.904296 -0.002,-0.0078 -0.10937,-0.423828 -0.0352,-0.134766 -0.0723,-0.279297 V 47.216809 45.4297 45.4277 l -0.10547,-2.30664 0.10351,-0.560547 0.002,-0.0078 0.84375,-3.28125 0.19531,-0.759765 0.24414,-0.513672 2.00976,-3.662109 0.36719,-0.4375 2.86133,-3.046876 0.4668,-0.330078 3.53125,-2.236328 0.5332,-0.201172 3.97461,-1.292968 0.29297,-0.03125 0.27539,-0.02539 z"
     transform="matrix(0.26458333,0,0,0.26458333,-100.5,-120.983)"
     id="path5271"
     inkscape:connector-curvature="0"
     sodipodi:nodetypes="ccccccccccccccccccccccccccccccccccccccccccccccccccccccccccccccccccc" />
  <path
     style="fill:none;stroke:#0000ff;stroke-width:0.03779527mm"
     d="m 443.31055,26.476562 0.5625,0.08789 4.10547,0.779297 0.52148,0.230469 3.78125,1.78125 0.44727,0.353515 3.2207,2.664063 0.3418,0.457031 0.95703,1.316406 1.49804,2.064454 0.21485,0.529296 1.0039,2.533204 0.53711,1.351562 0.0723,0.566406 0.41992,3.324219 0.10352,0.824219 -0.15235,1.511718 -0.0195,0.16211 -0.21094,1.673828 -0.0547,0.431641 -0.0703,0.550781 -0.68554,1.945312 -1.04688,2.642578 -0.34961,0.496094 -0.83789,1.19336 -0.42187,0.583984 -1.2461,1.716797 -2.1914,1.810547 -1.59766,1.304687 -2.57227,1.210938 -1.89257,0.824219 -2.79102,0.533203 -2.04492,0.283203 -1.14649,-0.07227 -1.68945,-0.107422 -2.04492,-0.283203 -2.70313,-0.876953 -1.89257,-0.824219 -2.39844,-1.523437 -1.59961,-1.304688 -1.94531,-2.070312 -1.18555,-1.691406 -0.0215,-0.03711 -0.36719,-0.669922 -0.98047,-1.785156 -0.68555,-1.945312 -0.49023,-1.904297 -0.002,-0.0078 -0.0527,-0.210937 -0.0527,-0.201172 -0.10938,-0.427735 V 47.185547 45.429688 L 423.4375,43.125 l 0.10352,-0.560547 0.8457,-3.291015 0.19531,-0.757813 L 424.82617,38 l 1.45899,-2.654297 0.55468,-1.007812 0.36719,-0.435547 2.86133,-3.048828 0.46484,-0.328125 3.5293,-2.238282 0.5332,-0.199218 3.97461,-1.294922 0.56836,-0.05664 2.62695,-0.164062 z"
     transform="matrix(0.26458333,0,0,0.26458333,-100.5,-120.983)"
     id="path5269"
     inkscape:connector-curvature="0"
     sodipodi:nodetypes="ccccccccccccccccccccccccccccccccccccccccccccccccccccccccccccccccccccc" />
  <path
     style="fill:none;stroke:#0000ff;stroke-width:0.03779527mm"
     d="m 381.16406,104.12109 0.16016,0.0312 4.33398,0.82422 0.0234,0.0117 0.125,0.0781 1.77734,1.1289 0.0371,0.0234 0.006,0.004 2.13672,2.6914 0.0195,0.0176 0.002,0.006 0.006,0.01 0.002,0.004 v 0.004 l 0.002,0.01 0.98438,3.8418 0.13867,0.53711 0.006,0.008 0.002,0.0332 -0.008,0.0117 -0.8418,3.28125 -0.28125,1.09961 -0.002,0.008 v 0.004 l -0.002,0.004 -0.008,0.0156 -0.0195,0.0176 -2.12305,2.66992 -0.0137,0.0176 -0.043,0.0293 -0.01,0.006 -1.89258,1.20508 -0.0234,0.01 h -0.004 l -4.49024,0.85547 h -0.041 l -0.30664,-0.0859 -0.97461,-0.27148 -1.97852,-0.55274 -0.0527,-0.0137 -0.0195,-0.0195 -1.36133,-1.12695 -0.45703,-0.37891 -1.67969,-1.38867 -0.0117,-0.0156 -0.01,-0.0215 -1.02539,-2.06641 -0.48828,-0.98632 h -0.002 l -0.004,-0.002 -0.006,-0.0137 -0.002,-0.01 v -0.004 l 0.004,-0.0234 0.006,-0.008 v -2.82227 -1.74218 -0.0117 l 0.0156,-0.0312 1.03516,-2.08594 0.47461,-0.95703 0.0137,-0.0234 0.004,-0.004 0.66601,-0.55078 2.82227,-2.33593 0.006,-0.004 0.01,-0.0137 0.0195,-0.006 2.02149,-0.56055 1.28711,-0.35937 z"
     transform="matrix(0.26458333,0,0,0.26458333,-100.5,-120.983)"
     id="path5267"
     inkscape:connector-curvature="0"
     sodipodi:nodetypes="ccccccccccccccccccccccccccccccccccccccccccccccccccccccccccccccccccccccc" />
  <path
     style="fill:none;stroke:#0000ff;stroke-width:0.03779527mm"
     d="m 604.24219,268.95117 0.0117,0.002 1.53906,0.0293 2.88476,1.08985 0.006,0.006 1.20313,1.03321 0.27148,0.375 0.67774,0.93359 0.002,0.004 0.61719,1.52734 0.23437,1.64453 v 0.004 l -0.17187,1.6543 -0.002,0.004 -0.99609,1.96875 -0.4707,0.92774 v 0.002 0.002 l -0.0117,0.008 -1.17188,1.07421 -2.64453,1.15625 -0.002,0.002 h -0.01 l -1.32617,0.12695 -0.0937,-0.01 -1.49804,-0.17773 -0.94336,-0.35156 -0.58594,-0.21875 -1.26758,-0.85156 -0.008,-0.004 -0.9961,-1.04102 -0.002,-0.004 -0.32031,-0.64063 -0.71289,-1.42773 -0.002,-0.004 v -0.006 l -0.36132,-2.41992 v -0.004 l 0.0254,-0.14257 0.26172,-1.47852 0.002,-0.006 1.12305,-2.17578 0.0859,-0.0762 1.72461,-1.55274 0.006,-0.004 2.91797,-0.97657 z"
     transform="matrix(0.26458333,0,0,0.26458333,-100.5,-120.983)"
     id="path5265"
     inkscape:connector-curvature="0"
     sodipodi:nodetypes="ccccccccccccccccccccccccccccccccccccccccccccccc" />
  <path
     style="fill:none;stroke:#0000ff;stroke-width:0.03779527mm"
     d="m 159.84766,269.08984 0.006,0.002 h 0.004 l 2.23828,0.81445 0.004,0.004 0.1875,0.18359 0.82227,0.81641 0.58203,0.57617 0.66211,0.6582 0.004,0.004 0.83203,2.23242 0.002,0.004 v 0.002 l 0.002,0.002 -0.11719,3.15235 -0.002,0.004 v 0.004 l -0.9961,2.16406 -0.002,0.004 -0.96679,0.89843 -0.7793,0.72266 -0.004,0.004 h -0.004 l -2.16407,0.99609 h -0.004 l -0.23438,0.002 h -0.27148 l -2.4043,0.002 h -0.25391 l -1.39453,-0.4961 -1,-0.59961 -0.0117,-0.006 -1.5,-1.48828 -0.002,-0.004 -0.24414,-0.51953 -0.86914,-1.84766 -0.002,-0.006 v -0.004 l -0.006,-0.63671 -0.0195,-2.53711 v -0.004 l 0.002,-0.004 1.5957,-2.70312 0.40625,-0.6875 0.002,-0.004 0.004,-0.002 2.74024,-1.55664 0.004,-0.002 h 0.006 z"
     transform="matrix(0.26458333,0,0,0.26458333,-100.5,-120.983)"
     id="path5263"
     inkscape:connector-curvature="0"
     sodipodi:nodetypes="cccccccccccccccccccccccccccccccccccccccccccccccccc" />
  <path
     style="fill:none;stroke:#0000ff;stroke-width:0.03779527mm"
     d="m 49.712891,289.31836 0.01758,0.004 2.251953,0.42968 0.333984,0.19336 1.548828,0.89258 0.707032,0.4082 0.169922,0.0977 0.21289,0.12305 0.02344,0.008 0.01953,0.0195 0.734375,0.85156 1.507812,1.7461 0.185547,0.61523 0.244141,0.80859 0.564453,1.86524 0.0059,0.0117 0.0059,0.0117 h 0.0059 v 0.0137 l 0.002,0.002 -0.0059,0.0215 -0.002,-0.002 -0.142578,1.13867 -0.423828,3.36329 -0.0078,0.0156 -0.355469,0.49219 -2.3125,3.18359 -0.01367,0.0234 -0.0098,0.002 -0.0059,0.002 -0.0059,0.002 -0.01367,0.006 -0.21289,0.12305 -0.173829,0.0996 -0.742187,0.42774 -0.908203,0.52539 -0.916016,0.5293 -0.0098,0.004 -0.0098,0.008 -0.345703,0.0645 -1.90625,0.36328 -0.01758,0.004 -0.0078,-0.002 h -0.0039 l -2.699219,-0.40039 -0.685547,-0.10156 h -0.01367 -0.0078 -0.0059 l -0.0059,0.002 h -0.0039 l -0.02148,-0.0156 -1.535156,-0.97461 -0.0078,-0.006 -2.28711,-1.44922 -0.01367,-0.0176 -0.002,-0.004 -0.259765,-0.38868 -0.01563,-0.0254 -1.31836,-1.98437 -0.30664,-0.46094 -0.0039,-0.0156 -0.570312,-2.21875 -0.002,-0.002 -0.002,-0.002 -0.0059,-0.0293 -0.002,-0.0137 0.0039,0.004 v -0.004 l 0.09375,-1.12891 0.189453,-2.26562 0.002,-0.0254 0.0039,-0.0176 0.0078,-0.0137 0.851563,-1.54688 0.412109,-0.75 0.873047,-1.58593 0.04492,-0.0781 0.0098,-0.0254 0.0098,-0.004 0.01172,-0.006 0.01953,-0.01 1.890625,-1.19922 0.333985,-0.21289 1.605468,-1.01953 h 0.0059 0.0078 0.01367 l 0.685547,-0.10156 z"
     transform="matrix(0.26458333,0,0,0.26458333,-100.5,-120.983)"
     id="path5261"
     inkscape:connector-curvature="0"
     sodipodi:nodetypes="cccccccccccccccccccccccccccccccccccccccccccccccccccccccccccccccccccccccccccccccccccccccccc" />
  <path
     style="fill:none;stroke:#0000ff;stroke-width:0.03779527mm"
     d="m 714.92188,289.31836 2.26562,0.43164 0.01,0.008 0.01,0.004 1.86328,1.07617 1.08985,0.62891 0.0117,0.004 0.0117,0.006 h 0.01 l 0.002,0.004 0.008,0.0117 0.006,0.01 0.21485,0.29493 0.87109,1.19921 1.2461,1.71289 0.33398,0.45899 0.002,0.006 0.008,0.0156 v 0.0352 l 0.23242,1.85547 0.006,0.0391 0.18359,1.45898 0.13086,1.03321 0.0137,0.11523 -0.002,0.004 -0.004,0.008 -0.006,0.0117 -0.8125,2.69922 -0.17773,0.58984 -0.004,0.004 -0.95703,1.10742 -1.06445,1.23438 -0.22071,0.25585 -0.0195,0.0195 -0.0234,0.008 -1.12696,0.65039 -0.9082,0.52344 -0.9375,0.54101 -2.26367,0.43164 -0.38477,-0.0566 -1.85547,-0.27343 -1.1582,-0.17188 h -0.0273 l -0.01,0.002 -0.002,-0.002 -0.01,-0.008 -0.01,-0.008 -1.54492,-0.97852 -2.28907,-1.44922 -0.0156,-0.0215 -0.006,-0.01 -0.26953,-0.4043 -0.97852,-1.47461 -0.33984,-0.50976 -0.30274,-0.45703 -0.004,-0.006 -0.008,-0.0234 -0.56836,-2.21094 -0.006,-0.0234 v -0.0156 l 0.0977,-1.13477 v -0.0137 l 0.19141,-2.25976 v -0.002 -0.008 l 0.002,-0.006 0.002,-0.0195 0.85938,-1.56055 1.32617,-2.41601 0.004,-0.0117 v -0.004 l 0.0156,-0.0117 0.0274,-0.0137 0.006,-0.002 0.78906,-0.50195 1.43554,-0.91016 1.60743,-1.01953 h 0.0273 l 1.1582,-0.16992 2.22657,-0.32813 z"
     transform="matrix(0.26458333,0,0,0.26458333,-100.5,-120.983)"
     id="path5259"
     inkscape:connector-curvature="0"
     sodipodi:nodetypes="ccccccccccccccccccccccccccccccccccccccccccccccccccccccccccccccccccccccccccccccccc" />
  <path
     style="fill:none;stroke:#0000ff;stroke-width:0.03779527mm"
     d="m 103.92969,341.07812 h 10.91601 1.82227 15.48047 15.48047 1.65625 l 0.0293,0.006 0.51172,0.0664 2.16211,0.2832 2.48242,1.0293 0.006,0.002 0.89258,0.6875 1.24414,0.95313 0.0312,0.0254 0.004,0.004 0.67773,0.88671 0.95899,1.25 0.006,0.0137 1.02734,2.47461 0.0156,0.0469 0.0117,0.084 0.33789,2.5586 0.004,0.0312 v 5.15234 7.74024 30.96093 30.9629 30.96093 15.48242 15.48047 15.48047 15.48047 30.96289 30.96094 30.96289 30.96094 3.2539 l -0.008,0.0312 -0.0762,0.58594 -0.0293,0.2207 -0.1875,1.41602 -0.0566,0.42969 -0.002,0.0156 -0.51757,1.24805 -0.22266,0.53906 -0.29297,0.70703 -0.01,0.0117 -0.0137,0.0195 -1.125,1.46485 -0.50586,0.6582 -0.01,0.0137 -1.26172,0.96875 -0.0371,0.0273 -0.83789,0.64454 -0.0137,0.004 -0.0332,0.0137 -2.49024,1.03125 -0.6875,0.0918 -1.98437,0.26172 h -1.65625 -15.48047 -15.48047 -7.74219 -4.99609 l -2.67188,-0.35352 -0.0312,-0.006 -0.041,-0.0176 -2.447269,-1.01563 -0.853515,-0.6543 -0.648438,-0.49609 -0.638672,-0.49023 -0.03125,-0.0234 -0.611328,-0.79688 -0.523437,-0.68164 -0.50586,-0.6582 -0.298828,-0.72266 -0.0332,-0.0801 -0.701172,-1.68946 -0.0098,-0.0293 -0.0059,-0.0195 -0.345703,-2.63671 -0.0039,-0.0312 v -3.25391 -15.48242 -15.48047 -1.68945 l -0.02148,-0.0371 -0.06055,-0.10352 -0.865234,-1.48047 -0.318359,-0.54883 -0.02148,-0.0117 -0.378906,-0.20704 -1.142578,-0.43554 h -0.0039 l -0.01367,-0.002 h -4.996094 -2.28125 -0.28125 l -0.02734,-0.002 -0.0039,-0.002 -1.779297,-0.23438 -1.857422,-0.24414 -0.0039,-0.002 -1.505859,-0.62305 -1.888672,-0.7832 -1.738281,-1.33399 -1.179688,-0.90429 -0.01758,-0.0117 -0.02734,-0.0156 -2.238281,-2.9121 -0.01758,-0.0215 -0.002,-0.006 -0.632813,-1.52734 -0.771484,-1.86524 -0.01172,-0.0254 -0.002,-0.0156 -0.05664,-0.43555 -0.416015,-3.18555 -0.002,-0.004 -0.0039,-0.0274 v -12.26562 -30.96094 -30.96289 -30.96094 -30.96289 -15.48047 -15.48046 -15.48047 -1.33399 -2.18554 -2.90235 l 0.0039,-0.0273 0.410156,-3.125 0.06445,-0.50391 0.002,-0.0176 0.01172,-0.0234 0.771484,-1.86524 0.441406,-1.06055 0.19336,-0.46875 0.0098,-0.0137 0.0078,-0.008 1.082031,-1.41016 0.02344,-0.0312 0.386719,-0.50586 0.746093,-0.9707 0.04492,-0.0254 2.917969,-2.23828 1.71289,-0.71094 0.175782,-0.0723 1.417968,-0.58789 0.07813,-0.0332 0.0098,-0.004 3.644531,-0.47657 0.02734,-0.004 h 0.167969 2.394531 4.996094 l 0.01758,-0.002 0.800781,-0.28906 0.740235,-0.36523 0.330078,-0.5625 0.816406,-1.39844 0.09961,-0.17187 0.02148,-0.0352 v -7.5332 -15.48047 -7.74024 -1.33984 -3.8125 l 0.0039,-0.0312 0.333984,-2.5586 0.0098,-0.084 0.0078,-0.0176 0.0098,-0.0293 0.298828,-0.71875 0.01758,-0.041 0.326172,-0.78906 0.390625,-0.93946 0.957031,-1.25 0.683594,-0.89062 0.02148,-0.0195 0.658203,-0.50586 1.466797,-1.12305 0.0039,-0.002 0.01172,-0.01 0.03125,-0.01 0.0078,-0.002 2.417968,-1.00195 0.0723,-0.0293 1.82422,-0.23828 0.28711,-0.0391 z"
     transform="matrix(0.26458333,0,0,0.26458333,-100.5,-120.983)"
     id="path5257"
     inkscape:connector-curvature="0"
     sodipodi:nodetypes="cccccccccccccccccccccccccccccccccccccccccccccccccccccccccccccccccccccccccccccccccccccccccccccccccccccccccccccccccccccccccccccccccccccccccccccccccccccccccccccccccccccccccccccccccccccccccccccccc" />
  <path
     style="fill:none;stroke:#0000ff;stroke-width:0.03779527mm"
     d="m 614.17383,341.07812 h 0.0312 5.77148 7.56055 30.96289 1.02734 l 0.5625,0.0723 0.28125,0.0371 h 0.002 l 1.14648,0.15039 0.67774,0.0879 0.17382,0.0723 2.31836,0.96093 0.0215,0.008 0.0137,0.004 0.0137,0.006 1.48242,1.13867 0.0195,0.0156 0.63086,0.48437 0.002,0.002 1.64062,2.13867 0.0254,0.0332 0.71289,1.71875 0.008,0.0176 0.30859,0.74609 0.002,0.006 0.0156,0.11328 0.0547,0.41211 0.28321,2.14649 0.006,0.0312 v 0.0312 5.11914 7.74219 15.48047 7.53125 l 0.12109,0.20898 0.51367,0.88086 0.60743,1.04101 0.0215,0.0391 0.40039,0.2207 1.14453,0.43359 h 0.004 l 0.0137,0.002 h 1.22461 2.63867 0.008 3.68946 l 0.0254,0.004 1.38086,0.17969 2.26172,0.29688 0.006,0.004 0.0215,0.0117 0.0195,0.0117 1.65234,0.68359 1.72266,0.71485 0.0215,0.01 2.03516,1.56055 0.875,0.67383 0.004,0.002 0.01,0.0137 0.73438,0.95703 1.49414,1.94727 h -0.002 l 0.0176,0.0215 0.006,0.0156 0.7168,1.72852 0.68359,1.65039 0.0117,0.0254 0.0703,0.5332 0.24024,1.82031 0.16992,1.29102 0.004,0.0273 v 0.041 6.38086 15.48047 15.48046 15.48047 15.48242 15.48047 15.48047 15.48047 15.48242 15.48047 15.48047 15.48047 7.74023 0.77735 3.74804 l -0.004,0.0254 -0.23437,1.7793 -0.1875,1.41016 -0.0586,0.45312 -0.004,0.008 -0.006,0.0176 -0.68164,1.64258 -0.72071,1.74024 -0.006,0.0137 -0.0176,0.0215 -2.23632,2.91406 -0.004,0.002 -0.01,0.008 -0.008,0.006 -0.0879,0.0684 -0.77148,0.5918 -0.33203,0.25585 -1.70118,1.30665 -0.0215,0.0156 -0.0527,0.0137 -1.66211,0.68946 -1.73438,0.71875 -2.23633,0.29492 -1.40625,0.18554 h -3.74804 -2.58594 -1.22461 l -0.0176,0.002 -0.80273,0.28906 -0.71875,0.35352 -0.0234,0.0117 -0.33594,0.57813 -0.29492,0.50391 -0.63281,1.08789 v 1.68945 15.48047 15.48047 3.25586 l -0.004,0.0176 -0.002,0.0117 -0.0781,0.58594 -0.21484,1.63672 -0.0586,0.43164 -0.002,0.0156 -0.71484,1.72656 -0.002,0.006 -0.0234,0.0547 -0.29102,0.70508 -0.0156,0.0195 -0.01,0.0117 -1.125,1.46485 -0.50586,0.66015 -0.01,0.0117 -0.63282,0.48633 -0.66406,0.50976 -0.83984,0.64454 -0.0117,0.004 -0.0137,0.006 -0.0215,0.008 -2.49218,1.03125 -0.48829,0.0645 -2.15039,0.28515 -0.0312,0.004 H 658.5 h -30.96289 -7.74023 -5.62305 l -0.0312,-0.004 -2.08594,-0.27539 -0.55664,-0.0742 -2.49219,-1.03125 -0.008,-0.004 -0.0312,-0.008 -0.0137,-0.01 -0.004,-0.002 -0.83008,-0.63868 -1.28906,-0.99023 -0.004,-0.004 -0.0195,-0.0156 -0.002,-0.006 -1.63867,-2.13086 -0.29883,-0.72266 -0.42383,-1.02734 -0.10742,-0.25586 -0.0215,-0.0527 -0.17969,-0.4336 -0.01,-0.0293 -0.008,-0.0195 -0.35352,-2.66992 v -0.0312 -3.22265 -15.48047 -15.48047 -30.96289 -30.96094 -30.96289 -30.96094 -15.48047 -15.48242 -15.48047 -15.48046 -30.9629 -30.96093 -7.74024 -5.10547 -0.0469 l 0.3418,-2.58789 0.0117,-0.084 0.008,-0.0195 0.01,-0.0293 0.14648,-0.35352 0.0332,-0.0801 0.85156,-2.05469 0.49219,-0.64257 0.0273,-0.0352 0.43945,-0.57227 0.67774,-0.88476 0.004,-0.006 1.28711,-0.98828 0.0899,-0.0684 0.75976,-0.58399 0.006,-0.002 2.48633,-1.0293 0.0469,-0.0234 0.004,-0.002 0.0117,-0.006 0.55664,-0.0723 1.55469,-0.20313 z"
     transform="matrix(0.26458333,0,0,0.26458333,-100.5,-120.983)"
     id="path5255"
     inkscape:connector-curvature="0"
     sodipodi:nodetypes="ccccccccccccccccccccccccccccccccccccccccccccccccccccccccccccccccccccccccccccccccccccccccccccccccccccccccccccccccccccccccccccccccccccccccccccccccccccccccccccccccccccccccccccccccccccccccccccccccccccccccccccccccccccccccc" />
  <path
     style="fill:none;stroke:#0000ff;stroke-width:0.03779527mm"
     d="m 49.714844,684.2793 0.01563,0.004 2.251953,0.42774 0.0098,0.006 0.0098,0.006 1.523438,0.8789 1.216797,0.70313 0.21289,0.12304 0.01953,0.006 0.0059,0.002 0.0098,0.002 0.01367,0.0254 2.189453,3.00977 0.470703,0.64843 0.0098,0.0117 0.0059,0.0176 0.05664,0.44531 0.345703,2.74805 0.164063,1.30859 0.0059,0.008 v 0.0273 h -0.0059 l -0.002,0.004 -0.0098,0.0195 -0.755859,2.50195 -0.238282,0.78516 -2.242187,2.60156 v 0.002 l -0.01367,0.0117 -0.0098,0.0117 -0.0098,0.002 -0.222656,0.12696 -0.177735,0.10351 -0.390625,0.22461 -2.183594,1.25977 -0.01367,0.004 -2.253906,0.42774 0.002,0.004 H 49.7091 49.68957 l -0.002,-0.002 -2.685547,-0.39648 -0.710937,-0.10547 -0.01758,-0.006 -1.869141,-1.18555 -1.960938,-1.24219 -0.03125,-0.0312 -0.05859,-0.0879 -0.201172,-0.30273 -0.01563,-0.0234 -1.449219,-2.18164 -0.171875,-0.25977 -0.0039,-0.006 -0.574219,-2.23243 -0.0039,-0.006 -0.0078,-0.0391 v -0.002 l 0.0039,0.002 0.111328,-1.32812 0.06445,-0.77539 0.09961,-1.19336 0.0078,-0.10157 0.002,-0.0234 0.0039,-0.0176 0.0078,-0.0137 0.960938,-1.74414 1.220703,-2.21875 0.0059,-0.0137 0.002,-0.004 0.002,-0.006 0.002,-0.002 0.0098,-0.002 0.01172,-0.006 0.01953,-0.01 1.888671,-1.20117 0.642579,-0.40821 1.289062,-0.81836 0.0078,-0.006 0.0059,0.002 h 0.0078 0.01367 l 0.685547,-0.10157 0.214844,-0.0312 2.484375,-0.36523 h 0.0039 z"
     transform="matrix(0.26458333,0,0,0.26458333,-100.5,-120.983)"
     id="path5239"
     inkscape:connector-curvature="0"
     sodipodi:nodetypes="cccccccccccccccccccccccccccccccccccccccccccccccccccccccccccccccccccccccccccccccccccccc" />
  <path
     style="fill:none;stroke:#0000ff;stroke-width:0.03779527mm"
     d="m 714.92188,684.2793 2.26562,0.43164 0.0195,0.0117 1.52344,0.8789 1.42969,0.82422 0.0254,0.01 0.01,0.002 0.0137,0.0234 0.21485,0.29687 1.97265,2.71485 0.48243,0.66015 0.006,0.0176 v 0.0352 l 0.39648,3.15625 0.16992,1.34375 -0.002,0.006 -0.01,0.0176 -0.7539,2.50391 -0.23633,0.78516 -2.02539,2.34765 -0.22071,0.25391 -0.0195,0.0195 -0.0156,0.008 -0.79102,0.45508 -0.88476,0.51172 -1.29688,0.74805 -1.13672,0.21679 -1.12695,0.21485 -0.0215,0.008 -0.0137,-0.006 -1.45312,-0.21484 -0.75977,-0.11133 -1.18554,-0.17578 -0.0176,-0.006 -1.42969,-0.90625 -0.43945,-0.2793 -0.36328,-0.23047 -1.59961,-1.01367 -0.0312,-0.0293 -0.008,-0.01 -1.7168,-2.58594 -0.17188,-0.25977 -0.004,-0.006 -0.57422,-2.23438 -0.01,-0.01 -0.004,-0.0137 0.002,-0.0215 0.002,0.002 h 0.002 l 0.11132,-1.32812 0.17774,-2.09571 0.004,-0.0156 0.9668,-1.75781 1.21875,-2.21875 0.01,-0.0254 0.01,-0.002 0.0332,-0.0156 2.53515,-1.60938 1.29688,-0.82422 0.0273,0.002 1.1582,-0.17188 z"
     transform="matrix(0.26458333,0,0,0.26458333,-100.5,-120.983)"
     id="path5237"
     inkscape:connector-curvature="0"
     sodipodi:nodetypes="cccccccccccccccccccccccccccccccccccccccccccccccccccccccccccccc" />
  <path
     style="fill:none;stroke:#0000ff;stroke-width:0.03779527mm"
     d="m 605.18164,715.24219 h 0.006 l 0.48047,0.0664 0.80078,0.11133 0.4707,0.20899 1.81446,0.8125 0.006,0.004 1.95312,2.07813 0.002,0.002 0.70508,1.9082 0.0918,0.24805 0.002,0.004 0.0742,1.37304 0.0469,0.85157 -0.34766,1.42968 -0.002,0.0117 -1.42578,2.33008 -0.004,0.006 -2.00977,1.47461 -0.006,0.002 -0.0332,0.01 -1.99414,0.60156 h -0.01 l -2.50585,-0.125 -0.006,-0.002 -0.92188,-0.47461 -1.94336,-0.99805 -0.004,-0.006 -1.11329,-1.23633 -0.72656,-1.34179 -0.004,-0.006 v -0.004 l -0.49023,-2.73828 0.002,-0.006 0.33399,-1.4043 0.31055,-1.29492 0.70507,-1.17578 0.004,-0.006 0.39258,-0.42578 0.51758,-0.56445 0.002,-0.002 0.004,-0.004 1.07226,-0.78321 2.44922,-0.86718 0.008,-0.002 z"
     transform="matrix(0.26458333,0,0,0.26458333,-100.5,-120.983)"
     id="path5235"
     inkscape:connector-curvature="0"
     sodipodi:nodetypes="cccccccccccccccccccccccccccccccccccccccccccccc" />
  <path
     style="fill:none;stroke:#0000ff;stroke-width:0.03779527mm"
     d="m 158.04297,715.25586 2.32617,0.37109 0.80274,0.12696 1.25195,0.70312 0.13867,0.0781 0.0117,0.004 0.53516,0.62696 1.52343,1.7871 0.004,0.008 0.53711,1.47461 0.008,0.0215 0.002,0.004 v 0.008 l 0.13868,1.18945 0.0469,0.39453 -0.74414,3.08008 -0.004,0.008 -0.55468,0.90235 -0.95703,0.88281 -0.98829,0.91016 -0.002,0.004 -2.45898,0.91211 -0.0117,0.002 -1.08594,0.0859 -1.30469,-0.3125 -1.77539,-0.42578 -1.32812,-0.88672 -0.008,-0.006 -1.86328,-2.56836 -0.004,-0.004 -0.46289,-2.33399 v -0.004 -0.006 l 0.22265,-1.85742 0.0606,-0.50196 0.002,-0.004 0.66406,-1.44727 0.002,-0.004 0.006,-0.006 0.99218,-1.25196 0.81446,-0.49804 1.50976,-0.92188 0.0586,-0.0371 0.32031,-0.19531 1.56445,-0.30859 z"
     transform="matrix(0.26458333,0,0,0.26458333,-100.5,-120.983)"
     id="path5233"
     inkscape:connector-curvature="0"
     sodipodi:nodetypes="cccccccccccccccccccccccccccccccccccccccccccccc" />
  <path
     style="fill:none;stroke:#0000ff;stroke-width:0.03779527mm"
     d="m 291.73047,752.13086 2.78906,0.5332 2.57422,1.20899 2.1875,1.81054 1.67187,2.29883 1.04688,2.64453 0.35547,2.82032 -0.35547,2.81835 -0.24219,0.60938 -0.80469,2.0332 -1.67187,2.29883 -2.1875,1.8125 -2.57422,1.21094 -2.78906,0.5332 -2.83789,-0.17773 -1.93555,-0.63086 -0.76758,-0.25 v 0.002 l -2.40039,-1.52344 -1.94531,-2.07031 -1.36914,-2.49219 -0.19141,-0.74414 -0.51562,-2.00586 v -2.8457 l 0.70703,-2.75586 1.36914,-2.49023 1.94531,-2.07032 2.40039,-1.52343 0.76758,-0.25 1.93555,-0.62696 z"
     transform="matrix(0.26458333,0,0,0.26458333,-100.5,-120.983)"
     id="path5231"
     inkscape:connector-curvature="0"
     sodipodi:nodetypes="ccccccccccccccccccccccccccccccc" />
  <path
     style="fill:none;stroke:#0000ff;stroke-width:0.03779527mm"
     d="m 382.29297,875.14453 0.0351,0.002 0.34766,0.0957 1,0.27929 0.0371,0.01 1.92383,0.53516 0.0215,0.008 0.008,0.0117 1.48437,1.23047 0.43164,0.35742 1.57813,1.30664 0.88672,1.7832 0.64257,1.29102 0.0176,0.041 0.006,0.01 0.46484,0.70312 -0.0137,0.10547 -0.008,0.0723 -0.01,0.0742 -0.0469,0.38672 -0.34961,2.86718 -0.043,0.35743 -0.004,0.0352 -0.002,0.002 -0.0723,0.14649 -1.45313,2.92578 -0.004,0.004 -0.01,0.0195 -0.67969,0.5625 -0.43359,0.35742 -0.4668,0.38672 -1.91601,1.58789 -0.004,0.004 -0.006,0.006 -0.0195,0.008 -1.92383,0.53711 -1.38477,0.38671 -0.0293,0.002 h -0.006 -0.004 l -2.44726,-0.4668 -2.04297,-0.38672 -0.0234,-0.0117 -1.94141,-1.23437 -0.008,-0.004 -0.0137,-0.0195 -0.63086,-0.79492 -1.48828,-1.875 -0.0195,-0.0176 -0.004,-0.0156 v -0.002 l -0.0976,-0.38281 -0.38868,-1.51172 -0.0176,-0.0664 -0.6211,-2.41797 -0.01,-0.0234 -0.004,-0.0117 v -0.0195 l 0.004,-0.0137 0.35546,-1.38477 0.77149,-2.99609 -0.004,0.002 0.002,-0.0117 0.004,-0.0156 0.002,-0.002 0.008,-0.004 0.01,-0.008 0.01,-0.008 0.6543,-0.82422 1.47851,-1.86718 0.008,-0.004 1.94141,-1.23047 0.0234,-0.0117 2.04297,-0.39062 1.93359,-0.36719 z"
     transform="matrix(0.26458333,0,0,0.26458333,-100.5,-120.983)"
     id="path3955"
     inkscape:connector-curvature="0"
     sodipodi:nodetypes="cccccccccccccccccccccccccccccccccccccccccccccccccccccccccccccccccccccccccccc" />
</svg>
