<?xml version="1.0" standalone="no"?>
<!DOCTYPE svg PUBLIC "-//W3C//DTD SVG 1.1//EN"
  "http://www.w3.org/Graphics/SVG/1.1/DTD/svg11.dtd">
<svg width="130mm" height="139.52200317382812mm" viewBox="-65 -69.76100158691406 130 139.52200317382812" xmlns="http://www.w3.org/2000/svg" version="1.1">
	<title>svgOutput</title>
	<desc>made with tinkercad</desc>
<path d="M -58.545616149902344 -65.90532684326172 L -57.38473892211914 -67.06620025634766 L -57.34400177001953 -67.10699462890625 L -57.33784866333008 -67.11315155029297 L -57.2760009765625 -67.17500305175781 L -57.025001525878906 -67.39900207519531 L -56.75 -67.59400177001953 L -56.45600128173828 -67.75700378417969 L -56.14500045776367 -67.88500213623047 L -55.821998596191406 -67.97899627685547 L -55.4900016784668 -68.03500366210938 L -55.15399932861328 -68.05400085449219 L -54.81800079345703 -68.03500366210938 L -54.48699951171875 -67.97899627685547 L -54.16299819946289 -67.88500213623047 L -53.85300064086914 -67.75700378417969 L -53.55799865722656 -67.59400177001953 L -53.284000396728516 -67.39900207519531 L -53.24800109863281 -67.36687469482422 L -53.03300094604492 -67.17500305175781 L -51.39400100708008 -65.53600311279297 L -49.152000427246094 -63.29399871826172 L -43.20199966430664 -57.34400177001953 L -42.68864059448242 -56.83063888549805 L -42.61899948120117 -56.76100158691406 L -41.88800048828125 -56.5890007019043 L -41.16899871826172 -56.37200164794922 L -40.959999084472656 -56.294219970703125 L -40.46500015258789 -56.11000061035156 L -39.77799987792969 -55.80400085449219 L -39.11199951171875 -55.45600128173828 L -38.46900177001953 -55.06700134277344 L -38.413848876953125 -55.09120178222656 L -38.294891357421875 -55.143402099609375 L -38.13399887084961 -55.2140007019043 L -38.10439682006836 -55.23147964477539 L -37.819000244140625 -55.400001525878906 L -37.52899932861328 -55.62300109863281 L -37.26900100708008 -55.880001068115234 L -37.04100036621094 -56.16600036621094 L -36.849998474121094 -56.47800064086914 L -36.69900131225586 -56.81100082397461 L -36.5890007019043 -57.15999984741211 L -36.55475616455078 -57.34400177001953 L -36.52199935913086 -57.52000045776367 L -36.5 -57.8849983215332 L -36.5 -60 L -36.47999954223633 -60.52299880981445 L -36.422000885009766 -61.042999267578125 L -36.32400131225586 -61.55799865722656 L -36.18899917602539 -62.0629997253418 L -36.01599884033203 -62.55699920654297 L -35.80699920654297 -63.0369987487793 L -35.5620002746582 -63.5 L -35.284000396728516 -63.94300079345703 L -34.972999572753906 -64.36399841308594 L -34.63100051879883 -64.76100158691406 L -34.26100158691406 -65.13099670410156 L -33.86399841308594 -65.4729995727539 L -33.778717041015625 -65.53600311279297 L -33.44300079345703 -65.78399658203125 L -33 -66.06199645996094 L -32.768001556396484 -66.18476104736328 L -32.5369987487793 -66.30699920654297 L -32.05699920654297 -66.51599884033203 L -31.562999725341797 -66.68900299072266 L -31.058000564575195 -66.8239974975586 L -30.542999267578125 -66.9219970703125 L -30.023000717163086 -66.9800033569336 L -29.5 -67 L -27 -67 L -26.371999740600586 -66.9800033569336 L -25.746999740600586 -66.9209976196289 L -25.125999450683594 -66.822998046875 L -24.576000213623047 -66.70008087158203 L -24.51300048828125 -66.68599700927734 L -23.90999984741211 -66.51100158691406 L -23.319000244140625 -66.2979965209961 L -22.742000579833984 -66.0479965209961 L -22.18199920654297 -65.76300048828125 L -21.79893684387207 -65.53600311279297 L -21.642000198364258 -65.44300079345703 L -21.121999740600586 -65.08999633789062 L -20.625999450683594 -64.70500183105469 L -20.155000686645508 -64.29000091552734 L -19.709999084472656 -63.845001220703125 L -19.295000076293945 -63.374000549316406 L -18.90999984741211 -62.87799835205078 L -18.55699920654297 -62.358001708984375 L -18.23699951171875 -61.81800079345703 L -18.04462432861328 -61.439998626708984 L -17.95199966430664 -61.257999420166016 L -17.70199966430664 -60.680999755859375 L -17.48900032043457 -60.09000015258789 L -17.31399917602539 -59.48699951171875 L -17.177000045776367 -58.874000549316406 L -17.07900047302246 -58.25299835205078 L -17.020000457763672 -57.62799835205078 L -17.010955810546875 -57.34400177001953 L -17 -57 L -17 -53.24800109863281 L -17 -50 L -16.981000900268555 -49.191001892089844 L -16.97819709777832 -49.152000427246094 L -16.92300033569336 -48.38399887084961 L -16.82699966430664 -47.58100128173828 L -16.69300079345703 -46.78300094604492 L -16.520999908447266 -45.992000579833984 L -16.384000778198242 -45.48249053955078 L -16.31100082397461 -45.21099853515625 L -16.065000534057617 -44.439998626708984 L -15.781999588012695 -43.68199920654297 L -15.46399974822998 -42.9379997253418 L -15.109999656677246 -42.209999084472656 L -14.722000122070312 -41.5 L -14.392998695373535 -40.959999084472656 L -14.300999641418457 -40.808998107910156 L -13.847999572753906 -40.138999938964844 L -13.36299991607666 -39.49100112915039 L -12.847999572753906 -38.867000579833984 L -12.303000450134277 -38.26900100708008 L -11.730999946594238 -37.696998596191406 L -11.133000373840332 -37.152000427246094 L -10.508999824523926 -36.637001037597656 L -9.861000061035156 -36.152000427246094 L -9.190999984741211 -35.69900131225586 L -8.5 -35.27799987792969 L -8.192000389099121 -35.109683990478516 L -7.789999961853027 -34.88999938964844 L -7.061999797821045 -34.5359992980957 L -6.317999839782715 -34.21799850463867 L -5.559999942779541 -33.935001373291016 L -4.789000034332275 -33.68899917602539 L -4.007999897003174 -33.479000091552734 L -3.2170000076293945 -33.30699920654297 L -2.4189999103546143 -33.17300033569336 L -1.6160000562667847 -33.07699966430664 L -0.8090000152587891 -33.01900100708008 L 1.9606790691885367e-13 -33 L 0.8090000152587891 -33.01900100708008 L 1.6160000562667847 -33.07699966430664 L 2.4189999103546143 -33.17300033569336 L 3.2170000076293945 -33.30699920654297 L 4.007999897003174 -33.479000091552734 L 4.789000034332275 -33.68899917602539 L 5.559999942779541 -33.935001373291016 L 6.317999839782715 -34.21799850463867 L 7.061999797821045 -34.5359992980957 L 7.789999961853027 -34.88999938964844 L 8.192000389099121 -35.109683990478516 L 8.5 -35.27799987792969 L 9.190999984741211 -35.69900131225586 L 9.861000061035156 -36.152000427246094 L 10.508999824523926 -36.637001037597656 L 11.133000373840332 -37.152000427246094 L 11.730999946594238 -37.696998596191406 L 12.303000450134277 -38.26900100708008 L 12.847999572753906 -38.867000579833984 L 13.36299991607666 -39.49100112915039 L 13.847999572753906 -40.138999938964844 L 14.300999641418457 -40.808998107910156 L 14.392998695373535 -40.959999084472656 L 14.722000122070312 -41.5 L 15.109999656677246 -42.209999084472656 L 15.46399974822998 -42.9379997253418 L 15.781999588012695 -43.68199920654297 L 16.065000534057617 -44.439998626708984 L 16.31100082397461 -45.21099853515625 L 16.384000778198242 -45.48249053955078 L 16.520999908447266 -45.992000579833984 L 16.69300079345703 -46.78300094604492 L 16.82699966430664 -47.58100128173828 L 16.92300033569336 -48.38399887084961 L 16.97819709777832 -49.152000427246094 L 16.981000900268555 -49.191001892089844 L 17 -50 L 17 -53.24800109863281 L 17 -57 L 17.010955810546875 -57.34400177001953 L 17.020000457763672 -57.62799835205078 L 17.07900047302246 -58.25299835205078 L 17.177000045776367 -58.874000549316406 L 17.31399917602539 -59.48699951171875 L 17.48900032043457 -60.09000015258789 L 17.70199966430664 -60.680999755859375 L 17.95199966430664 -61.257999420166016 L 18.04462432861328 -61.439998626708984 L 18.23699951171875 -61.81800079345703 L 18.55699920654297 -62.358001708984375 L 18.90999984741211 -62.87799835205078 L 19.295000076293945 -63.374000549316406 L 19.709999084472656 -63.845001220703125 L 20.155000686645508 -64.29000091552734 L 20.479999542236328 -64.57636260986328 L 20.625999450683594 -64.70500183105469 L 21.121999740600586 -65.08999633789062 L 21.642000198364258 -65.44300079345703 L 21.79893684387207 -65.53600311279297 L 22.18199920654297 -65.76300048828125 L 22.742000579833984 -66.0479965209961 L 23.319000244140625 -66.2979965209961 L 23.90999984741211 -66.51100158691406 L 24.51300048828125 -66.68599700927734 L 24.576000213623047 -66.70008087158203 L 25.125999450683594 -66.822998046875 L 25.746999740600586 -66.9209976196289 L 26.371999740600586 -66.9800033569336 L 27.25 -67 L 28.023000717163086 -66.9800033569336 L 28.542999267578125 -66.9219970703125 L 29.058000564575195 -66.8239974975586 L 29.562999725341797 -66.68900299072266 L 30.05699920654297 -66.51599884033203 L 30.53700065612793 -66.30699920654297 L 31 -66.06199645996094 L 31.44300079345703 -65.78399658203125 L 31.778717041015625 -65.53600311279297 L 31.86400032043457 -65.4729995727539 L 32.26100158691406 -65.13099670410156 L 32.63100051879883 -64.76100158691406 L 32.768001556396484 -64.60196685791016 L 32.972999572753906 -64.36399841308594 L 33.284000396728516 -63.94300079345703 L 33.5620002746582 -63.5 L 33.80699920654297 -63.0369987487793 L 34.01599884033203 -62.55699920654297 L 34.18899917602539 -62.0629997253418 L 34.32400131225586 -61.55799865722656 L 34.422000885009766 -61.042999267578125 L 34.47999954223633 -60.52299880981445 L 34.5 -60 L 34.5 -57.34400177001953 L 34.5 -57.29899978637695 L 34.520999908447266 -56.944000244140625 L 34.58399963378906 -56.59400177001953 L 34.6879997253418 -56.25299835205078 L 34.832000732421875 -55.928001403808594 L 35.01300048828125 -55.62099838256836 L 35.229000091552734 -55.3390007019043 L 35.47700119018555 -55.08300018310547 L 35.75400161743164 -54.86000061035156 L 36.05500030517578 -54.66999816894531 L 36.375999450683594 -54.516998291015625 L 36.7140007019043 -54.40399932861328 L 36.86399841308594 -54.372535705566406 L 36.924739837646484 -54.35979461669922 L 37.0620002746582 -54.33100128173828 L 37.177249908447266 -54.3209342956543 L 37.34299850463867 -54.306461334228516 L 37.41699981689453 -54.29999923706055 L 38.00699996948242 -54.75199890136719 L 38.624000549316406 -55.16600036621094 L 39.26599884033203 -55.54100036621094 L 39.93000030517578 -55.875999450683594 L 40.612998962402344 -56.16899871826172 L 40.959999084472656 -56.51599884033203 L 41.78799819946289 -57.34400177001953 L 49.152000427246094 -64.70800018310547 L 49.97999954223633 -65.53600311279297 L 52.32600021362305 -67.88200378417969 L 52.57699966430664 -68.10600280761719 L 52.85100173950195 -68.3010025024414 L 53.145999908447266 -68.46399688720703 L 53.24800109863281 -68.5064468383789 L 53.45600128173828 -68.59300231933594 L 53.779998779296875 -68.68599700927734 L 54.111000061035156 -68.74199676513672 L 54.446998596191406 -68.76100158691406 L 54.78300094604492 -68.74199676513672 L 55.1150016784668 -68.68599700927734 L 55.4379997253418 -68.59300231933594 L 55.749000549316406 -68.46399688720703 L 56.042999267578125 -68.3010025024414 L 56.31800079345703 -68.10600280761719 L 56.56842803955078 -67.88250732421875 L 56.569000244140625 -67.88200378417969 L 56.66619873046875 -67.78479766845703 L 56.72124481201172 -67.72969055175781 L 57.34400177001953 -67.10694122314453 L 58.545616149902344 -65.90532684326172 L 58.654335021972656 -65.79640197753906 L 58.3939323425293 -65.53600311279297 L 51.323734283447266 -58.46580123901367 L 51.22959899902344 -58.37160110473633 L 52.25754165649414 -57.34400177001953 L 53.6343994140625 -55.96760177612305 L 54.09400177001953 -55.507999420166016 L 52.827056884765625 -54.24105453491211 L 52.775001525878906 -54.18899917602539 L 52.749000549316406 -54.16299819946289 L 53.24599838256836 -53.71799850463867 L 53.71799850463867 -53.24599838256836 L 54.16299819946289 -52.749000549316406 L 55.507999420166016 -54.09400177001953 L 55.96760177612305 -53.6343994140625 L 57.34400177001953 -52.25754165649414 L 57.982666015625 -51.6186637878418 L 58.37160110473633 -51.22959899902344 L 58.46580123901367 -51.323734283447266 L 64 -56.857933044433594 L 64 -49.858001708984375 L 63.29399871826172 -49.152000427246094 L 57.34400177001953 -43.20199966430664 L 56.82194900512695 -42.67994689941406 L 56.76100158691406 -42.61899948120117 L 56.60200119018555 -41.935001373291016 L 56.40299987792969 -41.26100158691406 L 56.294166564941406 -40.959999084472656 L 56.16400146484375 -40.599998474121094 L 55.88800048828125 -39.95399856567383 L 55.57400131225586 -39.32500076293945 L 55.222999572753906 -38.715999603271484 L 54.8380012512207 -38.12900161743164 L 54.41899871826172 -37.564998626708984 L 53.96699905395508 -37.0260009765625 L 53.48500061035156 -36.51499938964844 L 52.9739990234375 -36.03300094604492 L 52.435001373291016 -35.58100128173828 L 51.87099838256836 -35.1619987487793 L 51.284000396728516 -34.777000427246094 L 50.67499923706055 -34.42599868774414 L 50.04600143432617 -34.11199951171875 L 49.400001525878906 -33.83599853515625 L 49.152000427246094 -33.74633026123047 L 48.73899841308594 -33.59700012207031 L 48.064998626708984 -33.39799880981445 L 47.38100051879883 -33.23899841308594 L 47.17264938354492 -33.0306510925293 L 46.90999984741211 -32.768001556396484 L 37.42900085449219 -23.28700065612793 L 36.981998443603516 -22.80900001525879 L 36.566001892089844 -22.30299949645996 L 36.185001373291016 -21.770999908447266 L 35.84000015258789 -21.215999603271484 L 35.53099822998047 -20.638999938964844 L 35.26100158691406 -20.042999267578125 L 35.03099822998047 -19.43000030517578 L 34.840999603271484 -18.804000854492188 L 34.69200134277344 -18.16699981689453 L 34.58599853515625 -17.520999908447266 L 34.520999908447266 -16.8700008392334 L 34.5 -16.215999603271484 L 34.5 4.440892164675075e-17 L 34.5 14.802000045776367 L 34.520999908447266 15.456000328063965 L 34.58599853515625 16.10700035095215 L 34.63152313232422 16.384000778198242 L 34.69200134277344 16.75200080871582 L 34.840999603271484 17.389999389648438 L 35.03099822998047 18.016000747680664 L 35.26100158691406 18.628000259399414 L 35.53099822998047 19.224000930786133 L 35.84000015258789 19.802000045776367 L 36.185001373291016 20.35700035095215 L 36.27308654785156 20.479999542236328 L 36.566001892089844 20.888999938964844 L 36.86399841308594 21.2514705657959 L 36.981998443603516 21.395000457763672 L 37.22050476074219 21.650043487548828 L 37.42900085449219 21.87299919128418 L 40.13199996948242 24.576000213623047 L 40.959999084472656 25.40399932861328 L 48.32400131225586 32.768001556396484 L 49.152000427246094 33.59600067138672 L 49.292179107666016 33.736175537109375 L 49.387001037597656 33.83100128173828 L 50.03499984741211 34.106998443603516 L 50.66600036621094 34.422000885009766 L 51.277000427246094 34.77299880981445 L 51.867000579833984 35.159000396728516 L 52.43199920654297 35.57899856567383 L 52.972999572753906 36.03099822998047 L 53.48500061035156 36.51499938964844 L 53.96900177001953 37.027000427246094 L 54.42100143432617 37.56800079345703 L 54.840999603271484 38.13399887084961 L 55.22700119018555 38.722999572753906 L 55.577999114990234 39.33399963378906 L 55.893001556396484 39.96500015258789 L 56.16899871826172 40.612998962402344 L 56.51599884033203 40.959999084472656 L 64 48.444000244140625 L 64 49.152000427246094 L 64 56.857933044433594 L 58.46580123901367 51.323734283447266 L 58.37160110473633 51.22959899902344 L 57.982666015625 51.6186637878418 L 57.805694580078125 51.79569625854492 L 55.96760177612305 53.6343994140625 L 55.82563400268555 53.7763671875 L 55.507999420166016 54.09400177001953 L 54.24105453491211 52.827056884765625 L 54.18899917602539 52.775001525878906 L 54.16299819946289 52.749000549316406 L 53.71799850463867 53.24599838256836 L 53.24599838256836 53.71799850463867 L 52.749000549316406 54.16299819946289 L 54.09400177001953 55.507999420166016 L 53.6343994140625 55.96760177612305 L 52.25754165649414 57.34400177001953 L 51.22959899902344 58.37160110473633 L 51.22999954223633 58.37200164794922 L 51.323734283447266 58.46580123901367 L 58.3939323425293 65.53600311279297 L 58.653602600097656 65.79566955566406 L 58.654335021972656 65.79640197753906 L 58.545616149902344 65.90532684326172 L 57.38473892211914 67.06620025634766 L 57.34400177001953 67.10699462890625 L 57.33784866333008 67.11315155029297 L 57.2760009765625 67.17500305175781 L 57.025001525878906 67.39900207519531 L 56.75 67.59400177001953 L 56.45600128173828 67.75700378417969 L 56.14500045776367 67.88500213623047 L 55.821998596191406 67.97899627685547 L 55.4900016784668 68.03500366210938 L 55.15399932861328 68.05400085449219 L 54.81800079345703 68.03500366210938 L 54.48699951171875 67.97899627685547 L 54.16299819946289 67.88500213623047 L 53.85300064086914 67.75700378417969 L 53.55799865722656 67.59400177001953 L 53.284000396728516 67.39900207519531 L 53.24800109863281 67.36687469482422 L 53.03300094604492 67.17500305175781 L 51.39400100708008 65.53600311279297 L 49.152000427246094 63.29399871826172 L 43.20199966430664 57.34400177001953 L 42.82735061645508 56.9693489074707 L 42.67994689941406 56.82194900512695 L 42.61899948120117 56.76100158691406 L 41.935001373291016 56.60200119018555 L 41.26100158691406 56.40299987792969 L 40.959999084472656 56.294166564941406 L 40.599998474121094 56.16400146484375 L 39.95399856567383 55.88800048828125 L 39.32500076293945 55.57400131225586 L 38.715999603271484 55.222999572753906 L 38.12900161743164 54.8380012512207 L 37.564998626708984 54.41899871826172 L 37.0260009765625 53.96699905395508 L 36.51499938964844 53.48500061035156 L 36.03300094604492 52.9739990234375 L 35.58100128173828 52.435001373291016 L 35.1619987487793 51.87099838256836 L 34.777000427246094 51.284000396728516 L 34.42599868774414 50.67499923706055 L 34.11199951171875 50.04600143432617 L 33.83599853515625 49.400001525878906 L 33.74633026123047 49.152000427246094 L 33.59700012207031 48.73899841308594 L 33.39799880981445 48.064998626708984 L 33.23899841308594 47.38100051879883 L 32.768001556396484 46.90999984741211 L 25.78700065612793 39.92900085449219 L 25.30900001525879 39.481998443603516 L 24.80299949645996 39.066001892089844 L 24.270999908447266 38.685001373291016 L 23.715999603271484 38.34000015258789 L 23.138999938964844 38.03099822998047 L 22.542999267578125 37.76100158691406 L 21.93000030517578 37.53099822998047 L 21.304000854492188 37.340999603271484 L 20.66699981689453 37.19200134277344 L 20.020999908447266 37.08599853515625 L 19.3700008392334 37.020999908447266 L 18.715999603271484 37 L 0 37 L -17.302000045776367 37 L -17.95599937438965 37.020999908447266 L -18.60700035095215 37.08599853515625 L -19.25200080871582 37.19200134277344 L -19.889999389648438 37.340999603271484 L -20.516000747680664 37.53099822998047 L -21.128000259399414 37.76100158691406 L -21.724000930786133 38.03099822998047 L -22.302000045776367 38.34000015258789 L -22.85700035095215 38.685001373291016 L -23.388999938964844 39.066001892089844 L -23.895000457763672 39.481998443603516 L -24.37299919128418 39.92900085449219 L -32.768001556396484 48.32400131225586 L -33.59600067138672 49.152000427246094 L -33.83100128173828 49.387001037597656 L -34.106998443603516 50.03499984741211 L -34.422000885009766 50.66600036621094 L -34.77299880981445 51.277000427246094 L -35.159000396728516 51.867000579833984 L -35.57899856567383 52.43199920654297 L -36.03099822998047 52.972999572753906 L -36.51499938964844 53.48500061035156 L -37.027000427246094 53.96900177001953 L -37.56800079345703 54.42100143432617 L -38.13399887084961 54.840999603271484 L -38.722999572753906 55.22700119018555 L -39.33399963378906 55.577999114990234 L -39.96500015258789 55.893001556396484 L -40.612998962402344 56.16899871826172 L -40.707820892333984 56.263824462890625 L -40.950801849365234 56.50680160522461 L -40.959999084472656 56.51599884033203 L -41.78799819946289 57.34400177001953 L -49.152000427246094 64.70800018310547 L -49.97999954223633 65.53600311279297 L -52.32600021362305 67.88200378417969 L -52.57699966430664 68.10600280761719 L -52.85100173950195 68.3010025024414 L -53.145999908447266 68.46399688720703 L -53.24800109863281 68.5064468383789 L -53.45600128173828 68.59300231933594 L -53.779998779296875 68.68599700927734 L -54.111000061035156 68.74199676513672 L -54.446998596191406 68.76100158691406 L -54.78300094604492 68.74199676513672 L -55.1150016784668 68.68599700927734 L -55.4379997253418 68.59300231933594 L -55.749000549316406 68.46399688720703 L -56.042999267578125 68.3010025024414 L -56.31800079345703 68.10600280761719 L -56.56842803955078 67.88250732421875 L -56.569000244140625 67.88200378417969 L -56.66619873046875 67.78479766845703 L -56.72124481201172 67.72969055175781 L -57.34400177001953 67.10694122314453 L -58.545616149902344 65.90532684326172 L -58.654335021972656 65.79640197753906 L -58.3939323425293 65.53600311279297 L -51.323734283447266 58.46580123901367 L -51.22959899902344 58.37160110473633 L -51.6186637878418 57.982666015625 L -51.79569625854492 57.805694580078125 L -52.25754165649414 57.34400177001953 L -53.6343994140625 55.96760177612305 L -54.09400177001953 55.507999420166016 L -52.749000549316406 54.16299819946289 L -53.24599838256836 53.71799850463867 L -53.71799850463867 53.24599838256836 L -54.16299819946289 52.749000549316406 L -54.18899917602539 52.775001525878906 L -54.24105453491211 52.827056884765625 L -55.507999420166016 54.09400177001953 L -55.96760177612305 53.6343994140625 L -57.34400177001953 52.25754165649414 L -58.37040328979492 51.230796813964844 L -58.37160110473633 51.22959899902344 L -58.46580123901367 51.323734283447266 L -58.72393035888672 51.58186340332031 L -59.242401123046875 52.10033416748047 L -64 56.857933044433594 L -64 49.858001708984375 L -63.29399871826172 49.152000427246094 L -57.34400177001953 43.20199966430664 L -56.9693489074707 42.82735061645508 L -56.76100158691406 42.61899948120117 L -56.60200119018555 41.935001373291016 L -56.40299987792969 41.26100158691406 L -56.294166564941406 40.959999084472656 L -56.16400146484375 40.599998474121094 L -55.88800048828125 39.95399856567383 L -55.57400131225586 39.32500076293945 L -55.222999572753906 38.715999603271484 L -54.8380012512207 38.12900161743164 L -54.41899871826172 37.564998626708984 L -53.96699905395508 37.0260009765625 L -53.48500061035156 36.51499938964844 L -52.9739990234375 36.03300094604492 L -52.435001373291016 35.58100128173828 L -51.87099838256836 35.1619987487793 L -51.284000396728516 34.777000427246094 L -50.67499923706055 34.42599868774414 L -50.04600143432617 34.11199951171875 L -49.400001525878906 33.83599853515625 L -49.152000427246094 33.74633026123047 L -48.73899841308594 33.59700012207031 L -48.064998626708984 33.39799880981445 L -47.38100051879883 33.23899841308594 L -47.32005310058594 33.17805099487305 L -47.17264938354492 33.0306510925293 L -46.90999984741211 32.768001556396484 L -39.42900085449219 25.28700065612793 L -38.981998443603516 24.80900001525879 L -38.790443420410156 24.576000213623047 L -38.566001892089844 24.30299949645996 L -38.3110466003418 23.94700050354004 L -38.185001373291016 23.770999908447266 L -37.84000015258789 23.215999603271484 L -37.53099822998047 22.638999938964844 L -37.26100158691406 22.042999267578125 L -37.03099822998047 21.43000030517578 L -36.840999603271484 20.804000854492188 L -36.76521301269531 20.479999542236328 L -36.69200134277344 20.16699981689453 L -36.58599853515625 19.520999908447266 L -36.520999908447266 18.8700008392334 L -36.5 18.215999603271484 L -36.5 16.384000778198242 L -36.5 4.440892164675075e-17 L -36.5 -16.802000045776367 L -36.520999908447266 -17.45599937438965 L -36.58599853515625 -18.10700035095215 L -36.69200134277344 -18.75200080871582 L -36.840999603271484 -19.389999389648438 L -37.03099822998047 -20.016000747680664 L -37.26100158691406 -20.628000259399414 L -37.53099822998047 -21.224000930786133 L -37.84000015258789 -21.802000045776367 L -38.185001373291016 -22.35700035095215 L -38.566001892089844 -22.888999938964844 L -38.981998443603516 -23.395000457763672 L -39.42900085449219 -23.87299919128418 L -48.32400131225586 -32.768001556396484 L -49.152000427246094 -33.59600067138672 L -49.387001037597656 -33.83100128173828 L -50.03499984741211 -34.106998443603516 L -50.66600036621094 -34.422000885009766 L -51.277000427246094 -34.77299880981445 L -51.867000579833984 -35.159000396728516 L -52.43199920654297 -35.57899856567383 L -52.972999572753906 -36.03099822998047 L -53.48500061035156 -36.51499938964844 L -53.96900177001953 -37.027000427246094 L -54.42100143432617 -37.56800079345703 L -54.840999603271484 -38.13399887084961 L -55.22700119018555 -38.722999572753906 L -55.577999114990234 -39.33399963378906 L -55.893001556396484 -39.96500015258789 L -56.16899871826172 -40.612998962402344 L -56.263824462890625 -40.707820892333984 L -56.50680160522461 -40.950801849365234 L -56.51599884033203 -40.959999084472656 L -64 -48.444000244140625 L -64 -49.152000427246094 L -64 -56.857933044433594 L -59.242401123046875 -52.10033416748047 L -58.46580123901367 -51.323734283447266 L -58.37416458129883 -51.23216247558594 L -58.37297821044922 -51.23097610473633 L -58.37200164794922 -51.22999954223633 L -58.37160110473633 -51.22959899902344 L -55.96760177612305 -53.6343994140625 L -55.507999420166016 -54.09400177001953 L -54.16299819946289 -52.749000549316406 L -53.71799850463867 -53.24599838256836 L -53.24599838256836 -53.71799850463867 L -52.749000549316406 -54.16299819946289 L -52.775001525878906 -54.18899917602539 L -52.827056884765625 -54.24105453491211 L -54.09400177001953 -55.507999420166016 L -53.6343994140625 -55.96760177612305 L -52.25754165649414 -57.34400177001953 L -51.230796813964844 -58.37040328979492 L -51.22959899902344 -58.37160110473633 L -51.323734283447266 -58.46580123901367 L -52.10033416748047 -59.242401123046875 L -58.3939323425293 -65.53600311279297 L -58.653602600097656 -65.79566955566406 L -58.654335021972656 -65.79640197753906 L -58.545616149902344 -65.90532684326172 M 25.498666763305664 -58.51606750488281 L 25.479999542236328 -58.74286651611328 L 25.476133346557617 -58.7585334777832 L 25.421066284179688 -58.97880172729492 L 25.41473388671875 -58.99359893798828 L 25.32513427734375 -59.202667236328125 L 25.3165340423584 -59.216331481933594 L 25.20427894592285 -59.391998291015625 L 25.19426727294922 -59.40766525268555 L 25.18353271484375 -59.419734954833984 L 25.032333374023438 -59.58866500854492 L 25.019866943359375 -59.59880065917969 L 24.842533111572266 -59.741600036621094 L 24.828533172607422 -59.74966812133789 L 24.630666732788086 -59.86073303222656 L 24.61553382873535 -59.86640167236328 L 24.576000213623047 -59.88090133666992 L 24.40180015563965 -59.944801330566406 L 24.38599967956543 -59.948001861572266 L 24.162933349609375 -59.99093246459961 L 24.146799087524414 -59.99153518676758 L 23.920000076293945 -59.99806594848633 L 23.90399932861328 -59.99606704711914 L 23.679067611694336 -59.965267181396484 L 23.66360092163086 -59.96066665649414 L 23.44613265991211 -59.89346694946289 L 23.43160057067871 -59.886531829833984 L 23.228134155273438 -59.78573226928711 L 23.214933395385742 -59.776466369628906 L 23.030134201049805 -59.6439323425293 L 23.01853370666504 -59.63273239135742 L 22.857999801635742 -59.472198486328125 L 22.848400115966797 -59.459266662597656 L 22.80015754699707 -59.391998291015625 L 22.715866088867188 -59.27446746826172 L 22.708467483520508 -59.2601318359375 L 22.607666015625 -59.05666732788086 L 22.60260009765625 -59.04133224487305 L 22.535400390625 -58.82386779785156 L 22.532934188842773 -58.80793380737305 L 22.527999877929688 -58.77190399169922 L 22.502132415771484 -58.58300018310547 L 22.50226593017578 -58.56686782836914 L 22.508800506591797 -58.340065002441406 L 22.51146697998047 -58.324134826660156 L 22.527999877929688 -58.23823165893555 L 22.554399490356445 -58.10106658935547 L 22.559667587280273 -58.08586502075195 L 22.6380672454834 -57.872135162353516 L 22.645666122436523 -57.85786819458008 L 22.756732940673828 -57.65999984741211 L 22.76653289794922 -57.64720153808594 L 22.909334182739258 -57.46986770629883 L 22.921066284179688 -57.45880126953125 L 23.049331665039062 -57.34400177001953 L 23.09000015258789 -57.30759811401367 L 23.10333251953125 -57.29853439331055 L 23.294666290283203 -57.176265716552734 L 23.309267044067383 -57.169532775878906 L 23.518333435058594 -57.079933166503906 L 23.53386688232422 -57.075599670410156 L 23.754133224487305 -57.02053451538086 L 23.770200729370117 -57.018733978271484 L 23.996999740600586 -57.000064849853516 L 24.013399124145508 -57.00093460083008 L 24.143997192382812 -57.01248550415039 L 24.256067276000977 -57.02239990234375 L 24.267866134643555 -57.02479934692383 L 24.576000213623047 -57.12668228149414 L 24.615066528320312 -57.13959884643555 L 24.619266510009766 -57.14073181152344 L 24.63253402709961 -57.14593505859375 L 24.645000457763672 -57.15286636352539 L 24.64853286743164 -57.155399322509766 L 24.898550033569336 -57.34400177001953 L 25.131067276000977 -57.51940155029297 L 25.140399932861328 -57.527000427246094 L 25.151533126831055 -57.53913497924805 L 25.291532516479492 -57.73886489868164 L 25.300466537475586 -57.75266647338867 L 25.40406608581543 -57.9738655090332 L 25.410600662231445 -57.98886489868164 L 25.473133087158203 -58.224998474121094 L 25.47719955444336 -58.24093246459961 L 25.498666763305664 -58.48360061645508 L 25.4999942779541 -58.49993133544922 L 25.5 -58.5 L 25.498666763305664 -58.51606750488281 M -23.501333236694336 -58.51606750488281 L -23.520000457763672 -58.74286651611328 L -23.523866653442383 -58.7585334777832 L -23.578933715820312 -58.97880172729492 L -23.58526611328125 -58.99359893798828 L -23.67486572265625 -59.202667236328125 L -23.6834659576416 -59.216331481933594 L -23.79572105407715 -59.391998291015625 L -23.80573272705078 -59.40766525268555 L -23.81646728515625 -59.419734954833984 L -23.967666625976562 -59.58866500854492 L -23.980133056640625 -59.59880065917969 L -24.157466888427734 -59.741600036621094 L -24.171466827392578 -59.74966812133789 L -24.369333267211914 -59.86073303222656 L -24.38446617126465 -59.86640167236328 L -24.576000213623047 -59.9366569519043 L -24.59819984436035 -59.944801330566406 L -24.61400032043457 -59.948001861572266 L -24.837066650390625 -59.99093246459961 L -24.853200912475586 -59.99153518676758 L -25.079999923706055 -59.99806594848633 L -25.09600067138672 -59.99606704711914 L -25.320932388305664 -59.965267181396484 L -25.33639907836914 -59.96066665649414 L -25.55386734008789 -59.89346694946289 L -25.56839942932129 -59.886531829833984 L -25.771865844726562 -59.78573226928711 L -25.785066604614258 -59.776466369628906 L -25.969865798950195 -59.6439323425293 L -25.98146629333496 -59.63273239135742 L -26.142000198364258 -59.472198486328125 L -26.151599884033203 -59.459266662597656 L -26.19984245300293 -59.391998291015625 L -26.284133911132812 -59.27446746826172 L -26.291532516479492 -59.2601318359375 L -26.392333984375 -59.05666732788086 L -26.39739990234375 -59.04133224487305 L -26.464599609375 -58.82386779785156 L -26.467065811157227 -58.80793380737305 L -26.497867584228516 -58.58300018310547 L -26.49773406982422 -58.56686782836914 L -26.491199493408203 -58.340065002441406 L -26.48853302001953 -58.324134826660156 L -26.445600509643555 -58.10106658935547 L -26.440332412719727 -58.08586502075195 L -26.3619327545166 -57.872135162353516 L -26.354333877563477 -57.85786819458008 L -26.243267059326172 -57.65999984741211 L -26.23346710205078 -57.64720153808594 L -26.090665817260742 -57.46986770629883 L -26.078933715820312 -57.45880126953125 L -25.950668334960938 -57.34400177001953 L -25.90999984741211 -57.30759811401367 L -25.89666748046875 -57.29853439331055 L -25.705333709716797 -57.176265716552734 L -25.690732955932617 -57.169532775878906 L -25.481666564941406 -57.079933166503906 L -25.46613311767578 -57.075599670410156 L -25.245866775512695 -57.02053451538086 L -25.229799270629883 -57.018733978271484 L -25.003000259399414 -57.000064849853516 L -24.986600875854492 -57.00093460083008 L -24.856002807617188 -57.01248550415039 L -24.743932723999023 -57.02239990234375 L -24.732133865356445 -57.02479934692383 L -24.576000213623047 -57.07642364501953 L -24.384933471679688 -57.13959884643555 L -24.380733489990234 -57.14073181152344 L -24.36746597290039 -57.14593505859375 L -24.360733032226562 -57.14967727661133 L -24.354999542236328 -57.15286636352539 L -24.35146713256836 -57.155399322509766 L -24.0460262298584 -57.34400177001953 L -24.04159927368164 -57.34673309326172 L -24.030733108520508 -57.355865478515625 L -23.85806655883789 -57.528533935546875 L -23.848466873168945 -57.53913497924805 L -23.708467483520508 -57.73886489868164 L -23.699533462524414 -57.75266647338867 L -23.59593391418457 -57.9738655090332 L -23.589399337768555 -57.98886489868164 L -23.526866912841797 -58.224998474121094 L -23.52280044555664 -58.24093246459961 L -23.501333236694336 -58.48360061645508 L -23.5000057220459 -58.49993133544922 L -23.5 -58.5 L -23.501333236694336 -58.51606750488281 M -29.128999710083008 28.212533950805664 L -28.85646629333496 27.969865798950195 L -28.848466873168945 27.960866928100586 L -28.708467483520508 27.761133193969727 L -28.699533462524414 27.747333526611328 L -28.672000885009766 27.68854522705078 L -28.59593391418457 27.526132583618164 L -28.589399337768555 27.511133193969727 L -28.526866912841797 27.274999618530273 L -28.52280044555664 27.25906753540039 L -28.501333236694336 27.016399383544922 L -28.5000057220459 27.00006675720215 L -28.5 27 L -28.501333236694336 26.983932495117188 L -28.520000457763672 26.75713348388672 L -28.523866653442383 26.741466522216797 L -28.553234100341797 26.624000549316406 L -28.578933715820312 26.52120018005371 L -28.58526611328125 26.506399154663086 L -28.672000885009766 26.30402183532715 L -28.67486572265625 26.297332763671875 L -28.6834659576416 26.283666610717773 L -28.80573272705078 26.09233283996582 L -28.81646728515625 26.08026695251465 L -28.967666625976562 25.911333084106445 L -28.980133056640625 25.901199340820312 L -29.157466888427734 25.758399963378906 L -29.171466827392578 25.750333786010742 L -29.369333267211914 25.639266967773438 L -29.38446617126465 25.63360023498535 L -29.59819984436035 25.555200576782227 L -29.61400032043457 25.552000045776367 L -29.837066650390625 25.50906753540039 L -29.853200912475586 25.508466720581055 L -30.079999923706055 25.501934051513672 L -30.09600067138672 25.503999710083008 L -30.320932388305664 25.534799575805664 L -30.33639907836914 25.53933334350586 L -30.55386734008789 25.60653305053711 L -30.56839942932129 25.613466262817383 L -30.719999313354492 25.68857192993164 L -30.771865844726562 25.714265823364258 L -30.785066604614258 25.723533630371094 L -30.969865798950195 25.85606575012207 L -30.98146629333496 25.867267608642578 L -31.142000198364258 26.027799606323242 L -31.151599884033203 26.040733337402344 L -31.284133911132812 26.22553253173828 L -31.291532516479492 26.239866256713867 L -31.392333984375 26.44333267211914 L -31.39739990234375 26.45866584777832 L -31.448490142822266 26.624000549316406 L -31.464599609375 26.67613410949707 L -31.467065811157227 26.692066192626953 L -31.497867584228516 26.91699981689453 L -31.49773406982422 26.933134078979492 L -31.491199493408203 27.15993309020996 L -31.48853302001953 27.175867080688477 L -31.445600509643555 27.39893341064453 L -31.440332412719727 27.414133071899414 L -31.3619327545166 27.627866744995117 L -31.354333877563477 27.642133712768555 L -31.243267059326172 27.84000015258789 L -31.23346710205078 27.852800369262695 L -31.090665817260742 28.030134201049805 L -31.078933715820312 28.041200637817383 L -30.90999984741211 28.192399978637695 L -30.89666748046875 28.201467514038086 L -30.719999313354492 28.314361572265625 L -30.705333709716797 28.323734283447266 L -30.690732955932617 28.330467224121094 L -30.481666564941406 28.420066833496094 L -30.46613311767578 28.424400329589844 L -30.245866775512695 28.479467391967773 L -30.229799270629883 28.481266021728516 L -30.003000259399414 28.49993324279785 L -29.986600875854492 28.499067306518555 L -29.743932723999023 28.47760009765625 L -29.727933883666992 28.47406578063965 L -29.71660041809082 28.46980094909668 L -29.159400939941406 28.233667373657227 L -29.155466079711914 28.231800079345703 L -29.143266677856445 28.224533081054688 L -29.135786056518555 28.218576431274414 L -29.13213348388672 28.215665817260742 L -29.128999710083008 28.212533950805664 M -25.58099937438965 -28.99799919128418 L -25.82200050354004 -28.96500015258789 L -26.05500030517578 -28.89299964904785 L -26.273000717163086 -28.78499984741211 L -26.43056297302246 -28.672000885009766 L -26.47100067138672 -28.64299964904785 L -26.624000549316406 -28.489999771118164 L -26.64299964904785 -28.47100067138672 L -26.78499984741211 -28.273000717163086 L -26.89299964904785 -28.05500030517578 L -26.96500015258789 -27.82200050354004 L -26.99799919128418 -27.58099937438965 L -26.990999221801758 -27.33799934387207 L -26.94499969482422 -27.099000930786133 L -26.861000061035156 -26.8700008392334 L -26.742000579833984 -26.658000946044922 L -26.71462059020996 -26.624000549316406 L -26.624000549316406 -26.511463165283203 L -26.589000701904297 -26.468000411987305 L -26.408000946044922 -26.305999755859375 L -26.202999114990234 -26.174999237060547 L -25.979000091552734 -26.07900047302246 L -25.743000030517578 -26.020000457763672 L -25.5 -26 L -25.239999771118164 -26.023000717163086 L -24.98699951171875 -26.09000015258789 L -24.75 -26.201000213623047 L -24.576000213623047 -26.322961807250977 L -24.535999298095703 -26.35099983215332 L -24.35099983215332 -26.535999298095703 L -24.289318084716797 -26.624000549316406 L -24.201000213623047 -26.75 L -24.09000015258789 -26.98699951171875 L -24.023000717163086 -27.239999771118164 L -24 -27.5 L -24.020000457763672 -27.743000030517578 L -24.07900047302246 -27.979000091552734 L -24.174999237060547 -28.202999114990234 L -24.305999755859375 -28.408000946044922 L -24.468000411987305 -28.589000701904297 L -24.57107162475586 -28.672000885009766 L -24.576000213623047 -28.675968170166016 L -24.658000946044922 -28.742000579833984 L -24.8700008392334 -28.861000061035156 L -25.099000930786133 -28.94499969482422 L -25.33799934387207 -28.990999221801758 L -25.58099937438965 -28.99799919128418 M -12.357999801635742 -20.44300079345703 L -12.878000259399414 -20.09000015258789 L -13.37399959564209 -19.704999923706055 L -13.845000267028809 -19.290000915527344 L -14.289999961853027 -18.844999313354492 L -14.704999923706055 -18.374000549316406 L -15.09000015258789 -17.878000259399414 L -15.442999839782715 -17.357999801635742 L -15.762999534606934 -16.81800079345703 L -15.983875274658203 -16.384000778198242 L -16.04800033569336 -16.257999420166016 L -16.29800033569336 -15.680999755859375 L -16.384000778198242 -15.44237995147705 L -16.51099967956543 -15.09000015258789 L -16.68600082397461 -14.487000465393066 L -16.822999954223633 -13.87399959564209 L -16.92099952697754 -13.253000259399414 L -16.979999542236328 -12.628000259399414 L -17 -12 L -17 -8.192000389099121 L -17 4.440892164675075e-17 L -17 8.192000389099121 L -17 12.288000106811523 L -17 13 L -16.979999542236328 13.628000259399414 L -16.92099952697754 14.253000259399414 L -16.822999954223633 14.87399959564209 L -16.68600082397461 15.487000465393066 L -16.51099967956543 16.09000015258789 L -16.405040740966797 16.384000778198242 L -16.384000778198242 16.442380905151367 L -16.29800033569336 16.680999755859375 L -16.04800033569336 17.257999420166016 L -15.762999534606934 17.81800079345703 L -15.442999839782715 18.357999801635742 L -15.09000015258789 18.878000259399414 L -14.704999923706055 19.374000549316406 L -14.289999961853027 19.844999313354492 L -13.845000267028809 20.290000915527344 L -13.629361152648926 20.479999542236328 L -13.37399959564209 20.704999923706055 L -12.878000259399414 21.09000015258789 L -12.357999801635742 21.44300079345703 L -11.817999839782715 21.76300048828125 L -11.258000373840332 22.04800033569336 L -10.680999755859375 22.29800033569336 L -10.09000015258789 22.51099967956543 L -9.487000465393066 22.68600082397461 L -8.87399959564209 22.822999954223633 L -8.253000259399414 22.92099952697754 L -8.192000389099121 22.9267578125 L -7.627999782562256 22.979999542236328 L -7 23 L 0 23 L 8.192000389099121 23 L 9 23 L 9.628000259399414 22.979999542236328 L 10.253000259399414 22.92099952697754 L 10.87399959564209 22.822999954223633 L 11.487000465393066 22.68600082397461 L 12.09000015258789 22.51099967956543 L 12.288000106811523 22.439640045166016 L 12.680999755859375 22.29800033569336 L 13.258000373840332 22.04800033569336 L 13.817999839782715 21.76300048828125 L 14.357999801635742 21.44300079345703 L 14.878000259399414 21.09000015258789 L 15.37399959564209 20.704999923706055 L 15.629361152648926 20.479999542236328 L 15.845000267028809 20.290000915527344 L 16.290000915527344 19.844999313354492 L 16.384000778198242 19.73831558227539 L 16.704999923706055 19.374000549316406 L 17.09000015258789 18.878000259399414 L 17.44300079345703 18.357999801635742 L 17.76300048828125 17.81800079345703 L 18.04800033569336 17.257999420166016 L 18.29800033569336 16.680999755859375 L 18.405040740966797 16.384000778198242 L 18.51099967956543 16.09000015258789 L 18.68600082397461 15.487000465393066 L 18.822999954223633 14.87399959564209 L 18.92099952697754 14.253000259399414 L 18.979999542236328 13.628000259399414 L 19 13 L 19 12.288000106811523 L 19 8.192000389099121 L 19 4.440892164675075e-17 L 19 -12 L 18.979999542236328 -12.628000259399414 L 18.92099952697754 -13.253000259399414 L 18.822999954223633 -13.87399959564209 L 18.68600082397461 -14.487000465393066 L 18.51099967956543 -15.09000015258789 L 18.29800033569336 -15.680999755859375 L 18.04800033569336 -16.257999420166016 L 17.983875274658203 -16.384000778198242 L 17.76300048828125 -16.81800079345703 L 17.44300079345703 -17.357999801635742 L 17.09000015258789 -17.878000259399414 L 16.704999923706055 -18.374000549316406 L 16.384000778198242 -18.73831558227539 L 16.290000915527344 -18.844999313354492 L 15.845000267028809 -19.290000915527344 L 15.37399959564209 -19.704999923706055 L 14.878000259399414 -20.09000015258789 L 14.357999801635742 -20.44300079345703 L 13.817999839782715 -20.76300048828125 L 13.258000373840332 -21.04800033569336 L 12.680999755859375 -21.29800033569336 L 12.09000015258789 -21.51099967956543 L 11.487000465393066 -21.68600082397461 L 10.87399959564209 -21.822999954223633 L 10.253000259399414 -21.92099952697754 L 9.628000259399414 -21.979999542236328 L 9 -22 L 0 -22 L -7 -22 L -7.627999782562256 -21.979999542236328 L -8.192000389099121 -21.9267578125 L -8.253000259399414 -21.92099952697754 L -8.87399959564209 -21.822999954223633 L -9.487000465393066 -21.68600082397461 L -10.09000015258789 -21.51099967956543 L -10.680999755859375 -21.29800033569336 L -11.258000373840332 -21.04800033569336 L -11.817999839782715 -20.76300048828125 L -12.295562744140625 -20.479999542236328 L -12.357999801635742 -20.44300079345703 M -40.959999084472656 42.06045913696289 L -41.15399932861328 41.80500030517578 L -41.44499969482422 41.48400115966797 L -41.762001037597656 41.189998626708984 L -42.05771255493164 40.959999084472656 L -42.104000091552734 40.92399978637695 L -42.46799850463867 40.68899917602539 L -42.849998474121094 40.486000061035156 L -43.249000549316406 40.31700134277344 L -43.6609992980957 40.18299865722656 L -44.08300018310547 40.084999084472656 L -44.51100158691406 40.02399826049805 L -44.944000244140625 40 L -45.37699890136719 40.013999938964844 L -45.80699920654297 40.066001892089844 L -46.23099899291992 40.15399932861328 L -46.64500045776367 40.27899932861328 L -47.04800033569336 40.43899917602539 L -47.435001373291016 40.632999420166016 L -47.80400085449219 40.86000061035156 L -47.93849563598633 40.959999084472656 L -48.1510009765625 41.11800003051758 L -48.474998474121094 41.404998779296875 L -48.77399826049805 41.720001220703125 L -49.042999267578125 42.05799865722656 L -49.152000427246094 42.221954345703125 L -49.28300094604492 42.41899871826172 L -49.4900016784668 42.79999923706055 L -49.66299819946289 43.19599914550781 L -49.801998138427734 43.606998443603516 L -49.904998779296875 44.02799987792969 L -49.970001220703125 44.45600128173828 L -49.999000549316406 44.88800048828125 L -49.995506286621094 45.055999755859375 L -49.9900016784668 45.32099914550781 L -49.94300079345703 45.750999450683594 L -49.86000061035156 46.17599868774414 L -49.7400016784668 46.59199905395508 L -49.58399963378906 46.99700164794922 L -49.39400100708008 47.38600158691406 L -49.17100143432617 47.75699996948242 L -49.152000427246094 47.78282165527344 L -48.87300109863281 48.1619987487793 L -48.5359992980957 48.5359992980957 L -48.1619987487793 48.87300109863281 L -47.78282165527344 49.152000427246094 L -47.75699996948242 49.17100143432617 L -47.3390007019043 49.41899871826172 L -46.89799880981445 49.625999450683594 L -46.43899917602539 49.78799819946289 L -45.96699905395508 49.90599822998047 L -45.486000061035156 49.97600173950195 L -45 50 L -44.56399917602539 49.98099899291992 L -44.13199996948242 49.92399978637695 L -43.70600128173828 49.83000183105469 L -43.290000915527344 49.698001861572266 L -42.887001037597656 49.53200149536133 L -42.5 49.33000183105469 L -42.220069885253906 49.152000427246094 L -42.13199996948242 49.09600067138672 L -41.7859992980957 48.83000183105469 L -41.4640007019043 48.5359992980957 L -41.16999816894531 48.2140007019043 L -40.959999084472656 47.94084167480469 L -40.90399932861328 47.86800003051758 L -40.66999816894531 47.5 L -40.46799850463867 47.112998962402344 L -40.301998138427734 46.709999084472656 L -40.16999816894531 46.29399871826172 L -40.07600021362305 45.86800003051758 L -40.01900100708008 45.43600082397461 L -40.00244140625 45.055999755859375 L -40 45 L -40.01900100708008 44.56700134277344 L -40.07500076293945 44.13800048828125 L -40.167999267578125 43.71500015258789 L -40.297000885009766 43.301998138427734 L -40.46200180053711 42.9010009765625 L -40.6609992980957 42.51599884033203 L -40.891998291015625 42.150001525878906 L -40.959999084472656 42.06045913696289 M -8.869999885559082 -28.660999298095703 L -8.899988174438477 -28.672000885009766 L -9.098999977111816 -28.7450008392334 L -9.338000297546387 -28.791000366210938 L -9.581000328063965 -28.79800033569336 L -9.821999549865723 -28.764999389648438 L -10.055000305175781 -28.69300079345703 L -10.097389221191406 -28.672000885009766 L -10.239999771118164 -28.601348876953125 L -10.27299976348877 -28.584999084472656 L -10.470999717712402 -28.44300079345703 L -10.642999649047852 -28.270999908447266 L -10.78499984741211 -28.072999954223633 L -10.892999649047852 -27.854999542236328 L -10.96500015258789 -27.621999740600586 L -10.998000144958496 -27.381000518798828 L -10.991000175476074 -27.13800048828125 L -10.944999694824219 -26.89900016784668 L -10.861000061035156 -26.670000076293945 L -10.835179328918457 -26.624000549316406 L -10.741999626159668 -26.45800018310547 L -10.58899974822998 -26.26799964904785 L -10.407999992370605 -26.106000900268555 L -10.239999771118164 -25.99864387512207 L -10.20300006866455 -25.975000381469727 L -9.979000091552734 -25.878999710083008 L -9.743000030517578 -25.81999969482422 L -9.5 -25.799999237060547 L -9.239999771118164 -25.822999954223633 L -8.987000465393066 -25.889999389648438 L -8.75 -26.000999450683594 L -8.53600025177002 -26.150999069213867 L -8.35099983215332 -26.336000442504883 L -8.201000213623047 -26.549999237060547 L -8.192000389099121 -26.569215774536133 L -8.166341781616211 -26.624000549316406 L -8.09000015258789 -26.78700065612793 L -8.02299976348877 -27.040000915527344 L -8 -27.299999237060547 L -8.020000457763672 -27.542999267578125 L -8.079000473022461 -27.77899932861328 L -8.175000190734863 -28.003000259399414 L -8.192000389099121 -28.029603958129883 L -8.305999755859375 -28.20800018310547 L -8.468000411987305 -28.388999938964844 L -8.657999992370605 -28.54199981689453 L -8.869999885559082 -28.660999298095703 M -49.40399932861328 -42.63199996948242 L -49.17399978637695 -42.24700164794922 L -49.152000427246094 -42.21675109863281 L -48.90999984741211 -41.88399887084961 L -48.6150016784668 -41.54600143432617 L -48.290000915527344 -41.23500061035156 L -47.946250915527344 -40.959999084472656 L -47.939998626708984 -40.95500183105469 L -47.564998626708984 -40.70800018310547 L -47.16999816894531 -40.494998931884766 L -46.75699996948242 -40.319000244140625 L -46.33100128173828 -40.18000030517578 L -45.893001556396484 -40.08000183105469 L -45.448001861572266 -40.02000045776367 L -45 -40 L -44.56399917602539 -40.01900100708008 L -44.13199996948242 -40.07600021362305 L -43.70600128173828 -40.16999816894531 L -43.290000915527344 -40.301998138427734 L -42.887001037597656 -40.46799850463867 L -42.5 -40.66999816894531 L -42.13199996948242 -40.90399932861328 L -42.05915832519531 -40.959999084472656 L -41.7859992980957 -41.16999816894531 L -41.4640007019043 -41.4640007019043 L -41.16999816894531 -41.7859992980957 L -40.959999084472656 -42.05915832519531 L -40.90399932861328 -42.13199996948242 L -40.66999816894531 -42.5 L -40.46799850463867 -42.887001037597656 L -40.301998138427734 -43.290000915527344 L -40.16999816894531 -43.70600128173828 L -40.07600021362305 -44.13199996948242 L -40.01900100708008 -44.56399917602539 L -40 -45 L -40.02000045776367 -45.448001861572266 L -40.08000183105469 -45.893001556396484 L -40.18000030517578 -46.33100128173828 L -40.319000244140625 -46.75699996948242 L -40.494998931884766 -47.16999816894531 L -40.70800018310547 -47.564998626708984 L -40.95500183105469 -47.939998626708984 L -40.959999084472656 -47.946250915527344 L -41.23500061035156 -48.290000915527344 L -41.54600143432617 -48.6150016784668 L -41.88399887084961 -48.90999984741211 L -42.21675109863281 -49.152000427246094 L -42.24700164794922 -49.17399978637695 L -42.63199996948242 -49.40399932861328 L -43.0359992980957 -49.597999572753906 L -43.457000732421875 -49.75600051879883 L -43.888999938964844 -49.875 L -44.33100128173828 -49.95500183105469 L -44.77799987792969 -49.994998931884766 L -45.22700119018555 -49.994998931884766 L -45.67399978637695 -49.95399856567383 L -46.1150016784668 -49.874000549316406 L -46.54800033569336 -49.75400161743164 L -46.96799850463867 -49.59700012207031 L -47.37200164794922 -49.402000427246094 L -47.75699996948242 -49.17100143432617 L -47.78282165527344 -49.152000427246094 L -48.1619987487793 -48.87300109863281 L -48.5359992980957 -48.5359992980957 L -48.87300109863281 -48.1619987487793 L -49.152000427246094 -47.78282165527344 L -49.17100143432617 -47.75699996948242 L -49.402000427246094 -47.37200164794922 L -49.59700012207031 -46.96799850463867 L -49.75400161743164 -46.54800033569336 L -49.874000549316406 -46.1150016784668 L -49.95399856567383 -45.67399978637695 L -49.994998931884766 -45.22700119018555 L -49.994998931884766 -44.77799987792969 L -49.95500183105469 -44.33100128173828 L -49.875 -43.888999938964844 L -49.75600051879883 -43.457000732421875 L -49.597999572753906 -43.0359992980957 L -49.40399932861328 -42.63199996948242 M 35.59400177001953 24.89699935913086 L 35.9640007019043 24.82699966430664 L 36.30400085449219 24.666000366210938 L 36.4128303527832 24.576000213623047 L 36.59299850463867 24.427000045776367 L 36.81399917602539 24.12299919128418 L 36.86399841308594 23.997100830078125 L 36.952999114990234 23.773000717163086 L 37 23.399999618530273 L 36.952999114990234 23.027000427246094 L 36.86399841308594 22.802898406982422 L 36.81399917602539 22.677000045776367 L 36.70568084716797 22.527999877929688 L 36.59299850463867 22.37299919128418 L 36.30400085449219 22.134000778198242 L 35.9640007019043 21.972999572753906 L 35.59400177001953 21.902999877929688 L 35.21900177001953 21.927000045776367 L 34.861000061035156 22.042999267578125 L 34.816001892089844 22.071533203125 L 34.54399871826172 22.243999481201172 L 34.2859992980957 22.51799964904785 L 34.280513763427734 22.527999877929688 L 34.10499954223633 22.847999572753906 L 34.012001037597656 23.211999893188477 L 34.012001037597656 23.58799934387207 L 34.10499954223633 23.95199966430664 L 34.2859992980957 24.281999588012695 L 34.54399871826172 24.555999755859375 L 34.57554244995117 24.576000213623047 L 34.861000061035156 24.756999969482422 L 35.21900177001953 24.87299919128418 L 35.59400177001953 24.89699935913086 M 26.42099952697754 14.420999526977539 L 26.384571075439453 14.336000442504883 L 26.325000762939453 14.196999549865723 L 26.194000244140625 13.991999626159668 L 26.031999588012695 13.810999870300293 L 25.841999053955078 13.657999992370605 L 25.6299991607666 13.538999557495117 L 25.400999069213867 13.454999923706055 L 25.16200065612793 13.409000396728516 L 24.91900062561035 13.402000427246094 L 24.67799949645996 13.4350004196167 L 24.576000213623047 13.466519355773926 L 24.44499969482422 13.506999969482422 L 24.226999282836914 13.614999771118164 L 24.02899932861328 13.756999969482422 L 23.85700035095215 13.928999900817871 L 23.71500015258789 14.126999855041504 L 23.61145782470703 14.336000442504883 L 23.60700035095215 14.345000267028809 L 23.53499984741211 14.57800006866455 L 23.50200080871582 14.819000244140625 L 23.509000778198242 15.062000274658203 L 23.55500030517578 15.300999641418457 L 23.638999938964844 15.529999732971191 L 23.757999420166016 15.741999626159668 L 23.910999298095703 15.932000160217285 L 24.091999053955078 16.0939998626709 L 24.297000885009766 16.225000381469727 L 24.520999908447266 16.320999145507812 L 24.576000213623047 16.334749221801758 L 24.756999969482422 16.3799991607666 L 24.805599212646484 16.384000778198242 L 25 16.399999618530273 L 25.180870056152344 16.384000778198242 L 25.260000228881836 16.37700080871582 L 25.51300048828125 16.309999465942383 L 25.75 16.198999404907227 L 25.964000701904297 16.048999786376953 L 26.14900016784668 15.86400032043457 L 26.298999786376953 15.649999618530273 L 26.40999984741211 15.413000106811523 L 26.476999282836914 15.15999984741211 L 26.5 14.899999618530273 L 26.479999542236328 14.656999588012695 L 26.42099952697754 14.420999526977539 M -26.99799919128418 -0.08100000023841854 L -26.99566650390625 4.440892164675075e-17 L -26.990999221801758 0.1620000004768372 L -26.94499969482422 0.40099999308586126 L -26.861000061035156 0.6299999952316284 L -26.742000579833984 0.8420000076293945 L -26.624000549316406 0.9885359406471252 L -26.589000701904297 1.031999945640564 L -26.408000946044922 1.194000005722046 L -26.202999114990234 1.3250000476837158 L -25.979000091552734 1.4210000038146973 L -25.743000030517578 1.4800000190734863 L -25.5 1.5 L -25.239999771118164 1.4769999980926514 L -24.98699951171875 1.409999966621399 L -24.75 1.2990000247955322 L -24.576000213623047 1.1770373582839966 L -24.535999298095703 1.1490000486373901 L -24.35099983215332 0.9639999866485596 L -24.201000213623047 0.75 L -24.09000015258789 0.5130000114440918 L -24.023000717163086 0.2599999904632569 L -24 4.440892164675075e-17 L -24.020000457763672 -0.24300000071525568 L -24.07900047302246 -0.47900000214576716 L -24.174999237060547 -0.703000009059906 L -24.305999755859375 -0.9079999923706055 L -24.468000411987305 -1.0889999866485596 L -24.576000213623047 -1.1759684085845947 L -24.658000946044922 -1.2419999837875366 L -24.8700008392334 -1.3609999418258667 L -25.099000930786133 -1.4450000524520874 L -25.33799934387207 -1.4910000562667847 L -25.58099937438965 -1.4980000257492065 L -25.82200050354004 -1.465000033378601 L -26.05500030517578 -1.3930000066757202 L -26.273000717163086 -1.284999966621399 L -26.47100067138672 -1.1430000066757202 L -26.624000549316406 -0.9900000095367432 L -26.64299964904785 -0.9710000157356262 L -26.78499984741211 -0.7730000019073486 L -26.89299964904785 -0.5550000071525574 L -26.96500015258789 -0.3219999969005584 L -26.99799919128418 -0.08100000023841854 M -24.908000946044922 -41.90599822998047 L -24.702999114990234 -41.775001525878906 L -24.576000213623047 -41.7205696105957 L -24.479000091552734 -41.67900085449219 L -24.243000030517578 -41.619998931884766 L -24 -41.599998474121094 L -23.739999771118164 -41.62300109863281 L -23.48699951171875 -41.689998626708984 L -23.25 -41.80099868774414 L -23.035999298095703 -41.95100021362305 L -22.85099983215332 -42.13600158691406 L -22.701000213623047 -42.349998474121094 L -22.59000015258789 -42.58700180053711 L -22.527999877929688 -42.82112121582031 L -22.523000717163086 -42.84000015258789 L -22.50813865661621 -43.007999420166016 L -22.5 -43.099998474121094 L -22.520000457763672 -43.34299850463867 L -22.527999877929688 -43.375 L -22.57900047302246 -43.57899856567383 L -22.674999237060547 -43.803001403808594 L -22.805999755859375 -44.007999420166016 L -22.968000411987305 -44.18899917602539 L -23.158000946044922 -44.34199905395508 L -23.3700008392334 -44.46099853515625 L -23.599000930786133 -44.54499816894531 L -23.83799934387207 -44.590999603271484 L -24.08099937438965 -44.597999572753906 L -24.32200050354004 -44.564998626708984 L -24.55500030517578 -44.49300003051758 L -24.576000213623047 -44.48259735107422 L -24.773000717163086 -44.3849983215332 L -24.97100067138672 -44.24300003051758 L -25.14299964904785 -44.07099914550781 L -25.28499984741211 -43.87300109863281 L -25.39299964904785 -43.654998779296875 L -25.46500015258789 -43.422000885009766 L -25.49799919128418 -43.180999755859375 L -25.493017196655273 -43.007999420166016 L -25.490999221801758 -42.9379997253418 L -25.44499969482422 -42.69900131225586 L -25.361000061035156 -42.470001220703125 L -25.242000579833984 -42.257999420166016 L -25.089000701904297 -42.06800079345703 L -24.908000946044922 -41.90599822998047 M 25.019866943359375 25.901199340820312 L 24.842533111572266 25.758399963378906 L 24.828533172607422 25.750333786010742 L 24.630666732788086 25.639266967773438 L 24.61553382873535 25.63360023498535 L 24.576000213623047 25.619098663330078 L 24.40180015563965 25.555200576782227 L 24.38599967956543 25.552000045776367 L 24.162933349609375 25.50906753540039 L 24.146799087524414 25.508466720581055 L 23.920000076293945 25.501934051513672 L 23.90399932861328 25.503999710083008 L 23.679067611694336 25.534799575805664 L 23.66360092163086 25.53933334350586 L 23.44613265991211 25.60653305053711 L 23.43160057067871 25.613466262817383 L 23.228134155273438 25.714265823364258 L 23.214933395385742 25.723533630371094 L 23.030134201049805 25.85606575012207 L 23.01853370666504 25.867267608642578 L 22.857999801635742 26.027799606323242 L 22.848400115966797 26.040733337402344 L 22.715866088867188 26.22553253173828 L 22.708467483520508 26.239866256713867 L 22.607666015625 26.44333267211914 L 22.60260009765625 26.45866584777832 L 22.551509857177734 26.624000549316406 L 22.535400390625 26.67613410949707 L 22.532934188842773 26.692066192626953 L 22.527999877929688 26.72809410095215 L 22.502132415771484 26.91699981689453 L 22.50226593017578 26.933134078979492 L 22.508800506591797 27.15993309020996 L 22.51146697998047 27.175867080688477 L 22.527999877929688 27.261768341064453 L 22.554399490356445 27.39893341064453 L 22.559667587280273 27.414133071899414 L 22.6380672454834 27.627866744995117 L 22.645666122436523 27.642133712768555 L 22.756732940673828 27.84000015258789 L 22.76653289794922 27.852800369262695 L 22.909334182739258 28.030134201049805 L 22.921066284179688 28.041200637817383 L 23.09000015258789 28.192399978637695 L 23.10333251953125 28.201467514038086 L 23.294666290283203 28.323734283447266 L 23.309267044067383 28.330467224121094 L 23.518333435058594 28.420066833496094 L 23.53386688232422 28.424400329589844 L 23.754133224487305 28.479467391967773 L 23.770200729370117 28.481266021728516 L 23.996999740600586 28.49993324279785 L 24.013399124145508 28.499067306518555 L 24.256067276000977 28.47760009765625 L 24.270000457763672 28.474599838256836 L 24.506134033203125 28.412067413330078 L 24.519533157348633 28.40726661682129 L 24.576000213623047 28.38081932067871 L 24.740734100341797 28.303667068481445 L 24.744667053222656 28.301799774169922 L 24.756866455078125 28.294532775878906 L 24.956600189208984 28.15453338623047 L 24.969266891479492 28.144132614135742 L 25.14193344116211 27.971466064453125 L 25.151533126831055 27.960866928100586 L 25.291532516479492 27.761133193969727 L 25.300466537475586 27.747333526611328 L 25.40406608581543 27.526132583618164 L 25.410600662231445 27.511133193969727 L 25.473133087158203 27.274999618530273 L 25.47719955444336 27.25906753540039 L 25.498666763305664 27.016399383544922 L 25.5 27 L 25.498666763305664 26.983932495117188 L 25.479999542236328 26.75713348388672 L 25.479766845703125 26.756187438964844 L 25.476133346557617 26.741466522216797 L 25.446765899658203 26.624000549316406 L 25.421066284179688 26.52120018005371 L 25.41473388671875 26.506399154663086 L 25.32513427734375 26.297332763671875 L 25.3165340423584 26.283666610717773 L 25.19426727294922 26.09233283996582 L 25.18353271484375 26.08026695251465 L 25.032333374023438 25.911333084106445 L 25.019866943359375 25.901199340820312 M 25.67799949645996 -34.46500015258789 L 25.44499969482422 -34.393001556396484 L 25.226999282836914 -34.28499984741211 L 25.02899932861328 -34.143001556396484 L 24.85700035095215 -33.97100067138672 L 24.71500015258789 -33.77299880981445 L 24.60700035095215 -33.55500030517578 L 24.576000213623047 -33.454681396484375 L 24.53499984741211 -33.321998596191406 L 24.50200080871582 -33.08100128173828 L 24.509000778198242 -32.8380012512207 L 24.522472381591797 -32.768001556396484 L 24.55500030517578 -32.5989990234375 L 24.576000213623047 -32.541751861572266 L 24.638999938964844 -32.369998931884766 L 24.757999420166016 -32.15800094604492 L 24.910999298095703 -31.968000411987305 L 25.091999053955078 -31.805999755859375 L 25.297000885009766 -31.674999237060547 L 25.520999908447266 -31.57900047302246 L 25.756999969482422 -31.520000457763672 L 26 -31.5 L 26.260000228881836 -31.523000717163086 L 26.51300048828125 -31.59000015258789 L 26.624000549316406 -31.641986846923828 L 26.75 -31.701000213623047 L 26.964000701904297 -31.85099983215332 L 27.14900016784668 -32.0359992980957 L 27.298999786376953 -32.25 L 27.40999984741211 -32.48699951171875 L 27.476999282836914 -32.7400016784668 L 27.479476928710938 -32.768001556396484 L 27.5 -33 L 27.479999542236328 -33.24300003051758 L 27.42099952697754 -33.479000091552734 L 27.325000762939453 -33.702999114990234 L 27.194000244140625 -33.90800094604492 L 27.031999588012695 -34.0890007019043 L 26.841999053955078 -34.242000579833984 L 26.6299991607666 -34.361000061035156 L 26.624000549316406 -34.36320114135742 L 26.400999069213867 -34.44499969482422 L 26.16200065612793 -34.49100112915039 L 25.91900062561035 -34.49800109863281 L 25.67799949645996 -34.46500015258789 M 23.757999420166016 -42.257999420166016 L 23.910999298095703 -42.06800079345703 L 24.091999053955078 -41.90599822998047 L 24.297000885009766 -41.775001525878906 L 24.520999908447266 -41.67900085449219 L 24.576000213623047 -41.66524887084961 L 24.756999969482422 -41.619998931884766 L 25 -41.599998474121094 L 25.260000228881836 -41.62300109863281 L 25.51300048828125 -41.689998626708984 L 25.75 -41.80099868774414 L 25.964000701904297 -41.95100021362305 L 26.14900016784668 -42.13600158691406 L 26.298999786376953 -42.349998474121094 L 26.40999984741211 -42.58700180053711 L 26.476999282836914 -42.84000015258789 L 26.49186134338379 -43.007999420166016 L 26.5 -43.099998474121094 L 26.479999542236328 -43.34299850463867 L 26.42099952697754 -43.57899856567383 L 26.325000762939453 -43.803001403808594 L 26.194000244140625 -44.007999420166016 L 26.031999588012695 -44.18899917602539 L 25.841999053955078 -44.34199905395508 L 25.6299991607666 -44.46099853515625 L 25.400999069213867 -44.54499816894531 L 25.16200065612793 -44.590999603271484 L 24.91900062561035 -44.597999572753906 L 24.67799949645996 -44.564998626708984 L 24.576000213623047 -44.53348159790039 L 24.44499969482422 -44.49300003051758 L 24.226999282836914 -44.3849983215332 L 24.02899932861328 -44.24300003051758 L 23.85700035095215 -44.07099914550781 L 23.71500015258789 -43.87300109863281 L 23.60700035095215 -43.654998779296875 L 23.53499984741211 -43.422000885009766 L 23.50200080871582 -43.180999755859375 L 23.506982803344727 -43.007999420166016 L 23.509000778198242 -42.9379997253418 L 23.55500030517578 -42.69900131225586 L 23.638999938964844 -42.470001220703125 L 23.757999420166016 -42.257999420166016 M 17.14900016784668 27.86400032043457 L 17.298999786376953 27.649999618530273 L 17.40999984741211 27.413000106811523 L 17.476999282836914 27.15999984741211 L 17.5 26.899999618530273 L 17.479999542236328 26.656999588012695 L 17.471750259399414 26.624000549316406 L 17.42099952697754 26.42099952697754 L 17.325000762939453 26.19700050354004 L 17.194000244140625 25.992000579833984 L 17.031999588012695 25.81100082397461 L 16.841999053955078 25.658000946044922 L 16.6299991607666 25.538999557495117 L 16.400999069213867 25.454999923706055 L 16.384000778198242 25.45172882080078 L 16.16200065612793 25.409000396728516 L 15.918999671936035 25.402000427246094 L 15.678000450134277 25.434999465942383 L 15.444999694824219 25.506999969482422 L 15.22700023651123 25.614999771118164 L 15.029000282287598 25.756999969482422 L 14.857000350952148 25.929000854492188 L 14.71500015258789 26.12700080871582 L 14.607000350952148 26.344999313354492 L 14.53499984741211 26.577999114990234 L 14.528700828552246 26.624000549316406 L 14.501999855041504 26.819000244140625 L 14.508999824523926 27.062000274658203 L 14.555000305175781 27.301000595092773 L 14.638999938964844 27.530000686645508 L 14.758000373840332 27.742000579833984 L 14.91100025177002 27.93199920654297 L 15.092000007629395 28.0939998626709 L 15.29699993133545 28.225000381469727 L 15.520999908447266 28.320999145507812 L 15.756999969482422 28.3799991607666 L 16 28.399999618530273 L 16.260000228881836 28.37700080871582 L 16.384000778198242 28.344161987304688 L 16.51300048828125 28.309999465942383 L 16.75 28.198999404907227 L 16.964000701904297 28.048999786376953 L 17.14900016784668 27.86400032043457 M 49.33000183105469 42.5 L 49.152000427246094 42.220069885253906 L 49.09600067138672 42.13199996948242 L 48.83000183105469 41.7859992980957 L 48.5359992980957 41.4640007019043 L 48.2140007019043 41.16999816894531 L 47.94084167480469 40.959999084472656 L 47.86800003051758 40.90399932861328 L 47.5 40.66999816894531 L 47.112998962402344 40.46799850463867 L 46.709999084472656 40.301998138427734 L 46.29399871826172 40.16999816894531 L 45.86800003051758 40.07600021362305 L 45.43600082397461 40.01900100708008 L 45 40 L 44.56399917602539 40.01900100708008 L 44.13199996948242 40.07600021362305 L 43.70600128173828 40.16999816894531 L 43.290000915527344 40.301998138427734 L 42.887001037597656 40.46799850463867 L 42.5 40.66999816894531 L 42.13199996948242 40.90399932861328 L 42.05915832519531 40.959999084472656 L 41.7859992980957 41.16999816894531 L 41.4640007019043 41.4640007019043 L 41.16999816894531 41.7859992980957 L 40.959999084472656 42.05915832519531 L 40.90399932861328 42.13199996948242 L 40.66999816894531 42.5 L 40.46799850463867 42.887001037597656 L 40.301998138427734 43.290000915527344 L 40.16999816894531 43.70600128173828 L 40.07600021362305 44.13199996948242 L 40.01900100708008 44.56399917602539 L 40 45 L 40.00244140625 45.055999755859375 L 40.01900100708008 45.43600082397461 L 40.07600021362305 45.86800003051758 L 40.16999816894531 46.29399871826172 L 40.301998138427734 46.709999084472656 L 40.46799850463867 47.112998962402344 L 40.66999816894531 47.5 L 40.90399932861328 47.86800003051758 L 40.959999084472656 47.94084167480469 L 41.16999816894531 48.2140007019043 L 41.4640007019043 48.5359992980957 L 41.7859992980957 48.83000183105469 L 42.13199996948242 49.09600067138672 L 42.220069885253906 49.152000427246094 L 42.5 49.33000183105469 L 42.887001037597656 49.53200149536133 L 43.290000915527344 49.698001861572266 L 43.70600128173828 49.83000183105469 L 44.13199996948242 49.92399978637695 L 44.56399917602539 49.98099899291992 L 45 50 L 45.486000061035156 49.97600173950195 L 45.96699905395508 49.90599822998047 L 46.43899917602539 49.78799819946289 L 46.89799880981445 49.625999450683594 L 47.3390007019043 49.41899871826172 L 47.75699996948242 49.17100143432617 L 47.78282165527344 49.152000427246094 L 48.1619987487793 48.87300109863281 L 48.5359992980957 48.5359992980957 L 48.87300109863281 48.1619987487793 L 49.152000427246094 47.78282165527344 L 49.17100143432617 47.75699996948242 L 49.41899871826172 47.3390007019043 L 49.625999450683594 46.89799880981445 L 49.78799819946289 46.43899917602539 L 49.90599822998047 45.96699905395508 L 49.97600173950195 45.486000061035156 L 50 45 L 49.98099899291992 44.56399917602539 L 49.92399978637695 44.13199996948242 L 49.83000183105469 43.70600128173828 L 49.698001861572266 43.290000915527344 L 49.53200149536133 42.887001037597656 L 49.33000183105469 42.5 M 48.2140007019043 -41.16999816894531 L 48.5359992980957 -41.4640007019043 L 48.83000183105469 -41.7859992980957 L 49.09600067138672 -42.13199996948242 L 49.152000427246094 -42.220069885253906 L 49.33000183105469 -42.5 L 49.53200149536133 -42.887001037597656 L 49.698001861572266 -43.290000915527344 L 49.83000183105469 -43.70600128173828 L 49.92399978637695 -44.13199996948242 L 49.98099899291992 -44.56399917602539 L 50 -45 L 49.99723434448242 -45.055999755859375 L 49.97600173950195 -45.486000061035156 L 49.90599822998047 -45.96699905395508 L 49.78799819946289 -46.43899917602539 L 49.625999450683594 -46.89799880981445 L 49.41899871826172 -47.3390007019043 L 49.17100143432617 -47.75699996948242 L 49.152000427246094 -47.78282165527344 L 48.87300109863281 -48.1619987487793 L 48.5359992980957 -48.5359992980957 L 48.1619987487793 -48.87300109863281 L 47.78282165527344 -49.152000427246094 L 47.75699996948242 -49.17100143432617 L 47.38600158691406 -49.39400100708008 L 46.99700164794922 -49.58399963378906 L 46.59199905395508 -49.7400016784668 L 46.17599868774414 -49.86000061035156 L 45.750999450683594 -49.94300079345703 L 45.32099914550781 -49.9900016784668 L 44.88800048828125 -49.999000549316406 L 44.45600128173828 -49.970001220703125 L 44.02799987792969 -49.904998779296875 L 43.606998443603516 -49.801998138427734 L 43.19599914550781 -49.66299819946289 L 42.79999923706055 -49.4900016784668 L 42.41899871826172 -49.28300094604492 L 42.221954345703125 -49.152000427246094 L 42.05799865722656 -49.042999267578125 L 41.720001220703125 -48.77399826049805 L 41.404998779296875 -48.474998474121094 L 41.11800003051758 -48.1510009765625 L 40.959999084472656 -47.93849563598633 L 40.86000061035156 -47.80400085449219 L 40.632999420166016 -47.435001373291016 L 40.43899917602539 -47.04800033569336 L 40.27899932861328 -46.64500045776367 L 40.15399932861328 -46.23099899291992 L 40.066001892089844 -45.80699920654297 L 40.013999938964844 -45.37699890136719 L 40 -44.944000244140625 L 40.02399826049805 -44.51100158691406 L 40.084999084472656 -44.08300018310547 L 40.18299865722656 -43.6609992980957 L 40.31700134277344 -43.249000549316406 L 40.486000061035156 -42.849998474121094 L 40.68899917602539 -42.46799850463867 L 40.92399978637695 -42.104000091552734 L 40.959999084472656 -42.05771255493164 L 41.189998626708984 -41.762001037597656 L 41.48400115966797 -41.44499969482422 L 41.80500030517578 -41.15399932861328 L 42.06045913696289 -40.959999084472656 L 42.150001525878906 -40.891998291015625 L 42.51599884033203 -40.6609992980957 L 42.9010009765625 -40.46200180053711 L 43.301998138427734 -40.297000885009766 L 43.71500015258789 -40.167999267578125 L 44.13800048828125 -40.07500076293945 L 44.56700134277344 -40.01900100708008 L 45 -40 L 45.43600082397461 -40.01900100708008 L 45.86800003051758 -40.07600021362305 L 46.29399871826172 -40.16999816894531 L 46.709999084472656 -40.301998138427734 L 47.112998962402344 -40.46799850463867 L 47.5 -40.66999816894531 L 47.86800003051758 -40.90399932861328 L 47.94084167480469 -40.959999084472656 L 48.2140007019043 -41.16999816894531 M -22.527999877929688 14.625 L -22.57900047302246 14.420999526977539 L -22.615428924560547 14.336000442504883 L -22.674999237060547 14.196999549865723 L -22.805999755859375 13.991999626159668 L -22.968000411987305 13.810999870300293 L -23.158000946044922 13.657999992370605 L -23.3700008392334 13.538999557495117 L -23.599000930786133 13.454999923706055 L -23.83799934387207 13.409000396728516 L -24.08099937438965 13.402000427246094 L -24.32200050354004 13.4350004196167 L -24.55500030517578 13.506999969482422 L -24.576000213623047 13.517403602600098 L -24.773000717163086 13.614999771118164 L -24.97100067138672 13.756999969482422 L -25.14299964904785 13.928999900817871 L -25.28499984741211 14.126999855041504 L -25.38854217529297 14.336000442504883 L -25.39299964904785 14.345000267028809 L -25.46500015258789 14.57800006866455 L -25.49799919128418 14.819000244140625 L -25.490999221801758 15.062000274658203 L -25.44499969482422 15.300999641418457 L -25.361000061035156 15.529999732971191 L -25.242000579833984 15.741999626159668 L -25.089000701904297 15.932000160217285 L -24.908000946044922 16.0939998626709 L -24.702999114990234 16.225000381469727 L -24.576000213623047 16.279428482055664 L -24.479000091552734 16.320999145507812 L -24.243000030517578 16.3799991607666 L -24.194400787353516 16.384000778198242 L -24 16.399999618530273 L -23.819129943847656 16.384000778198242 L -23.739999771118164 16.37700080871582 L -23.48699951171875 16.309999465942383 L -23.25 16.198999404907227 L -23.035999298095703 16.048999786376953 L -22.85099983215332 15.86400032043457 L -22.701000213623047 15.649999618530273 L -22.59000015258789 15.413000106811523 L -22.527999877929688 15.17888069152832 L -22.523000717163086 15.15999984741211 L -22.5 14.899999618530273 L -22.520000457763672 14.656999588012695 L -22.527999877929688 14.625 z" fill="none" stroke="rgb(0,0,255)" stroke-width="0.01mm" />
</svg>