<?xml version="1.0" standalone="no"?>
<!DOCTYPE svg PUBLIC "-//W3C//DTD SVG 1.1//EN"
  "http://www.w3.org/Graphics/SVG/1.1/DTD/svg11.dtd">
<svg width="190mm" height="190mm" viewBox="-95 -95 190 190" xmlns="http://www.w3.org/2000/svg" version="1.1">
	<title>svgOutput</title>
	<desc>made with tinkercad</desc>
<path d="M -66.46800231933594 66.46800231933594 L -67.37005615234375 65.53600311279297 L -68.60700225830078 64.25800323486328 L -69.3050308227539 63.487998962402344 L -69.63200378417969 63.127323150634766 L -70.6729965209961 61.979000091552734 L -71.13021087646484 61.439998626708984 L -72.66300201416016 59.632999420166016 L -72.85427856445312 59.391998291015625 L -73.72799682617188 58.291168212890625 L -74.4797592163086 57.34400177001953 L -74.57499694824219 57.2239990234375 L -76.00520324707031 55.29600143432617 L -76.40799713134766 54.75299835205078 L -77.44941711425781 53.24800109863281 L -77.8239974975586 52.7066764831543 L -78.15799713134766 52.2239990234375 L -79.82499694824219 49.63800048828125 L -80.11627197265625 49.152000427246094 L -81.34367370605469 47.104000091552734 L -81.40599822998047 47 L -81.91999816894531 46.07548904418945 L -82.48680114746094 45.055999755859375 L -82.9010009765625 44.31100082397461 L -83.57012176513672 43.007999420166016 L -84.30599975585938 41.57500076293945 L -84.5968017578125 40.959999084472656 L -85.56520080566406 38.9119987487793 L -85.62100219726562 38.79399871826172 L -86.01599884033203 37.883304595947266 L -86.4581069946289 36.86399841308594 L -86.84500122070312 35.97200012207031 L -87.9749984741211 33.11199951171875 L -88.09801483154297 32.768001556396484 L -88.83040618896484 30.719999313354492 L -89.01100158691406 30.21500015258789 L -89.50688934326172 28.672000885009766 L -89.9520034790039 27.28700065612793 L -90.11199951171875 26.726905822753906 L -90.7264404296875 24.576000213623047 L -90.7969970703125 24.32900047302246 L -91.54399871826172 21.344999313354492 L -91.7309799194336 20.479999542236328 L -92.19400024414062 18.33799934387207 L -92.54915618896484 16.384000778198242 L -92.74400329589844 15.312000274658203 L -93.19317626953125 12.288000106811523 L -93.19599914550781 12.269000053405762 L -93.42912292480469 10.239999771118164 L -93.5469970703125 9.21399974822998 L -93.63099670410156 8.192000389099121 L -93.79900360107422 6.1479997634887695 L -93.89986419677734 4.0960001945495605 L -93.94999694824219 3.0759999752044678 L -94 4.440892164675075e-17 L -93.94999694824219 -3.0759999752044678 L -93.89986419677734 -4.0960001945495605 L -93.79900360107422 -6.1479997634887695 L -93.63099670410156 -8.192000389099121 L -93.5469970703125 -9.21399974822998 L -93.42912292480469 -10.239999771118164 L -93.19599914550781 -12.269000053405762 L -93.19317626953125 -12.288000106811523 L -92.88896942138672 -14.336000442504883 L -92.74400329589844 -15.312000274658203 L -92.54915618896484 -16.384000778198242 L -92.19400024414062 -18.33799934387207 L -91.7309799194336 -20.479999542236328 L -91.54399871826172 -21.344999313354492 L -90.7969970703125 -24.32900047302246 L -90.7264404296875 -24.576000213623047 L -90.11199951171875 -26.726905822753906 L -89.9520034790039 -27.28700065612793 L -89.50688934326172 -28.672000885009766 L -89.01100158691406 -30.21500015258789 L -88.09801483154297 -32.768001556396484 L -87.9749984741211 -33.11199951171875 L -86.84500122070312 -35.97200012207031 L -86.4581069946289 -36.86399841308594 L -86.01599884033203 -37.883304595947266 L -85.62100219726562 -38.79399871826172 L -85.56520080566406 -38.9119987487793 L -84.5968017578125 -40.959999084472656 L -84.30599975585938 -41.57500076293945 L -83.57012176513672 -43.007999420166016 L -82.9010009765625 -44.31100082397461 L -82.48680114746094 -45.055999755859375 L -81.91999816894531 -46.07548904418945 L -81.40599822998047 -47 L -81.34367370605469 -47.104000091552734 L -80.11627197265625 -49.152000427246094 L -79.82499694824219 -49.63800048828125 L -78.15799713134766 -52.2239990234375 L -77.8239974975586 -52.7066764831543 L -77.44941711425781 -53.24800109863281 L -76.40799713134766 -54.75299835205078 L -76.00520324707031 -55.29600143432617 L -74.57499694824219 -57.2239990234375 L -74.4797592163086 -57.34400177001953 L -73.72799682617188 -58.291168212890625 L -72.85427856445312 -59.391998291015625 L -72.66300201416016 -59.632999420166016 L -71.13021087646484 -61.439998626708984 L -70.6729965209961 -61.979000091552734 L -69.63200378417969 -63.127323150634766 L -69.3050308227539 -63.487998962402344 L -68.60700225830078 -64.25800323486328 L -67.37005615234375 -65.53600311279297 L -66.46800231933594 -66.46800231933594 L -65.53600311279297 -67.37005615234375 L -65.31495666503906 -67.58399963378906 L -64.25800323486328 -68.60700225830078 L -63.127323150634766 -69.63200378417969 L -61.979000091552734 -70.6729965209961 L -61.439998626708984 -71.13021087646484 L -60.79185485839844 -71.68000030517578 L -59.632999420166016 -72.66300201416016 L -58.291168212890625 -73.72799682617188 L -57.34400177001953 -74.4797592163086 L -57.2239990234375 -74.57499694824219 L -55.604976654052734 -75.7760009765625 L -54.75299835205078 -76.40799713134766 L -53.24800109863281 -77.44941711425781 L -52.7066764831543 -77.8239974975586 L -52.2239990234375 -78.15799713134766 L -49.63800048828125 -79.82499694824219 L -49.152000427246094 -80.11627197265625 L -47 -81.40599822998047 L -46.07548904418945 -81.91999816894531 L -45.055999755859375 -82.48680114746094 L -44.31100082397461 -82.9010009765625 L -43.007999420166016 -83.57012176513672 L -42.23319625854492 -83.96800231933594 L -41.57500076293945 -84.30599975585938 L -40.959999084472656 -84.5968017578125 L -38.79399871826172 -85.62100219726562 L -37.883304595947266 -86.01599884033203 L -35.97200012207031 -86.84500122070312 L -33.11199951171875 -87.9749984741211 L -32.768001556396484 -88.09801483154297 L -30.21500015258789 -89.01100158691406 L -28.672000885009766 -89.50688934326172 L -27.28700065612793 -89.9520034790039 L -26.726905822753906 -90.11199951171875 L -24.576000213623047 -90.7264404296875 L -24.32900047302246 -90.7969970703125 L -21.344999313354492 -91.54399871826172 L -20.479999542236328 -91.7309799194336 L -18.33799934387207 -92.19400024414062 L -16.384000778198242 -92.54915618896484 L -15.312000274658203 -92.74400329589844 L -12.288000106811523 -93.19317626953125 L -12.269000053405762 -93.19599914550781 L -10.239999771118164 -93.42912292480469 L -9.21399974822998 -93.5469970703125 L -8.192000389099121 -93.63099670410156 L -6.1479997634887695 -93.79900360107422 L -4.0960001945495605 -93.89986419677734 L -3.0759999752044678 -93.94999694824219 L 0 -94 L 3.0759999752044678 -93.94999694824219 L 4.0960001945495605 -93.89986419677734 L 6.1479997634887695 -93.79900360107422 L 8.192000389099121 -93.63099670410156 L 9.21399974822998 -93.5469970703125 L 10.239999771118164 -93.42912292480469 L 12.269000053405762 -93.19599914550781 L 12.288000106811523 -93.19317626953125 L 14.336000442504883 -92.88896942138672 L 15.312000274658203 -92.74400329589844 L 16.384000778198242 -92.54915618896484 L 18.33799934387207 -92.19400024414062 L 20.479999542236328 -91.7309799194336 L 21.344999313354492 -91.54399871826172 L 24.32900047302246 -90.7969970703125 L 24.576000213623047 -90.7264404296875 L 26.726905822753906 -90.11199951171875 L 27.28700065612793 -89.9520034790039 L 28.672000885009766 -89.50688934326172 L 30.21500015258789 -89.01100158691406 L 32.768001556396484 -88.09801483154297 L 33.11199951171875 -87.9749984741211 L 35.97200012207031 -86.84500122070312 L 37.883304595947266 -86.01599884033203 L 38.79399871826172 -85.62100219726562 L 40.959999084472656 -84.5968017578125 L 41.57500076293945 -84.30599975585938 L 42.23319625854492 -83.96800231933594 L 43.007999420166016 -83.57012176513672 L 44.31100082397461 -82.9010009765625 L 45.055999755859375 -82.48680114746094 L 46.07548904418945 -81.91999816894531 L 47 -81.40599822998047 L 49.152000427246094 -80.11627197265625 L 49.63800048828125 -79.82499694824219 L 52.2239990234375 -78.15799713134766 L 52.7066764831543 -77.8239974975586 L 53.24800109863281 -77.44941711425781 L 54.75299835205078 -76.40799713134766 L 55.604976654052734 -75.7760009765625 L 57.2239990234375 -74.57499694824219 L 57.34400177001953 -74.4797592163086 L 58.291168212890625 -73.72799682617188 L 59.632999420166016 -72.66300201416016 L 60.79185485839844 -71.68000030517578 L 61.439998626708984 -71.13021087646484 L 61.979000091552734 -70.6729965209961 L 63.127323150634766 -69.63200378417969 L 64.25800323486328 -68.60700225830078 L 65.31495666503906 -67.58399963378906 L 65.53600311279297 -67.37005615234375 L 66.46800231933594 -66.46800231933594 L 67.37005615234375 -65.53600311279297 L 68.60700225830078 -64.25800323486328 L 69.3050308227539 -63.487998962402344 L 69.63200378417969 -63.127323150634766 L 70.6729965209961 -61.979000091552734 L 71.13021087646484 -61.439998626708984 L 72.66300201416016 -59.632999420166016 L 72.85427856445312 -59.391998291015625 L 73.72799682617188 -58.291168212890625 L 74.4797592163086 -57.34400177001953 L 74.57499694824219 -57.2239990234375 L 76.00520324707031 -55.29600143432617 L 76.40799713134766 -54.75299835205078 L 77.44941711425781 -53.24800109863281 L 77.8239974975586 -52.7066764831543 L 78.15799713134766 -52.2239990234375 L 79.82499694824219 -49.63800048828125 L 80.11627197265625 -49.152000427246094 L 81.34367370605469 -47.104000091552734 L 81.40599822998047 -47 L 81.91999816894531 -46.07548904418945 L 82.48680114746094 -45.055999755859375 L 82.9010009765625 -44.31100082397461 L 83.57012176513672 -43.007999420166016 L 84.30599975585938 -41.57500076293945 L 84.5968017578125 -40.959999084472656 L 85.56520080566406 -38.9119987487793 L 85.62100219726562 -38.79399871826172 L 86.01599884033203 -37.883304595947266 L 86.4581069946289 -36.86399841308594 L 86.84500122070312 -35.97200012207031 L 87.9749984741211 -33.11199951171875 L 88.09801483154297 -32.768001556396484 L 88.83040618896484 -30.719999313354492 L 89.01100158691406 -30.21500015258789 L 89.50688934326172 -28.672000885009766 L 89.9520034790039 -27.28700065612793 L 90.11199951171875 -26.726905822753906 L 90.7264404296875 -24.576000213623047 L 90.7969970703125 -24.32900047302246 L 91.54399871826172 -21.344999313354492 L 91.7309799194336 -20.479999542236328 L 92.19400024414062 -18.33799934387207 L 92.54915618896484 -16.384000778198242 L 92.74400329589844 -15.312000274658203 L 93.19317626953125 -12.288000106811523 L 93.19599914550781 -12.269000053405762 L 93.42912292480469 -10.239999771118164 L 93.5469970703125 -9.21399974822998 L 93.63099670410156 -8.192000389099121 L 93.79900360107422 -6.1479997634887695 L 93.7991943359375 -6.144000053405762 L 93.89986419677734 -4.0960001945495605 L 93.94999694824219 -3.0759999752044678 L 93.96671295166016 -2.0480000972747803 L 94 4.440892164675075e-17 L 93.96671295166016 2.0480000972747803 L 93.94999694824219 3.0759999752044678 L 93.89986419677734 4.0960001945495605 L 93.7991943359375 6.144000053405762 L 93.79900360107422 6.1479997634887695 L 93.63099670410156 8.192000389099121 L 93.5469970703125 9.21399974822998 L 93.42912292480469 10.239999771118164 L 93.19599914550781 12.269000053405762 L 93.19317626953125 12.288000106811523 L 92.88896942138672 14.336000442504883 L 92.74400329589844 15.312000274658203 L 92.54915618896484 16.384000778198242 L 92.19400024414062 18.33799934387207 L 91.7309799194336 20.479999542236328 L 91.54399871826172 21.344999313354492 L 90.7969970703125 24.32900047302246 L 90.7264404296875 24.576000213623047 L 90.11199951171875 26.726905822753906 L 89.9520034790039 27.28700065612793 L 89.50688934326172 28.672000885009766 L 89.01100158691406 30.21500015258789 L 88.09801483154297 32.768001556396484 L 87.9749984741211 33.11199951171875 L 86.84500122070312 35.97200012207031 L 86.4581069946289 36.86399841308594 L 86.01599884033203 37.883304595947266 L 85.62100219726562 38.79399871826172 L 85.56520080566406 38.9119987487793 L 84.5968017578125 40.959999084472656 L 84.30599975585938 41.57500076293945 L 83.57012176513672 43.007999420166016 L 82.9010009765625 44.31100082397461 L 82.48680114746094 45.055999755859375 L 81.91999816894531 46.07548904418945 L 81.40599822998047 47 L 81.34367370605469 47.104000091552734 L 80.11627197265625 49.152000427246094 L 79.82499694824219 49.63800048828125 L 78.15799713134766 52.2239990234375 L 77.8239974975586 52.7066764831543 L 77.44941711425781 53.24800109863281 L 76.40799713134766 54.75299835205078 L 76.00520324707031 55.29600143432617 L 74.57499694824219 57.2239990234375 L 74.4797592163086 57.34400177001953 L 73.72799682617188 58.291168212890625 L 72.85427856445312 59.391998291015625 L 72.66300201416016 59.632999420166016 L 71.13021087646484 61.439998626708984 L 70.6729965209961 61.979000091552734 L 69.63200378417969 63.127323150634766 L 69.3050308227539 63.487998962402344 L 68.60700225830078 64.25800323486328 L 67.37005615234375 65.53600311279297 L 66.46800231933594 66.46800231933594 L 65.53600311279297 67.37005615234375 L 65.31495666503906 67.58399963378906 L 64.25800323486328 68.60700225830078 L 63.127323150634766 69.63200378417969 L 61.979000091552734 70.6729965209961 L 61.439998626708984 71.13021087646484 L 60.79185485839844 71.68000030517578 L 59.632999420166016 72.66300201416016 L 58.291168212890625 73.72799682617188 L 57.34400177001953 74.4797592163086 L 57.2239990234375 74.57499694824219 L 55.604976654052734 75.7760009765625 L 54.75299835205078 76.40799713134766 L 53.24800109863281 77.44941711425781 L 52.7066764831543 77.8239974975586 L 52.2239990234375 78.15799713134766 L 49.63800048828125 79.82499694824219 L 49.152000427246094 80.11627197265625 L 47 81.40599822998047 L 46.07548904418945 81.91999816894531 L 45.055999755859375 82.48680114746094 L 44.31100082397461 82.9010009765625 L 43.007999420166016 83.57012176513672 L 42.23319625854492 83.96800231933594 L 41.57500076293945 84.30599975585938 L 40.959999084472656 84.5968017578125 L 38.79399871826172 85.62100219726562 L 37.883304595947266 86.01599884033203 L 35.97200012207031 86.84500122070312 L 33.11199951171875 87.9749984741211 L 32.768001556396484 88.09801483154297 L 30.21500015258789 89.01100158691406 L 28.672000885009766 89.50688934326172 L 27.28700065612793 89.9520034790039 L 26.726905822753906 90.11199951171875 L 24.576000213623047 90.7264404296875 L 24.32900047302246 90.7969970703125 L 21.344999313354492 91.54399871826172 L 20.479999542236328 91.7309799194336 L 18.33799934387207 92.19400024414062 L 16.384000778198242 92.54915618896484 L 15.312000274658203 92.74400329589844 L 12.288000106811523 93.19317626953125 L 12.269000053405762 93.19599914550781 L 10.239999771118164 93.42912292480469 L 9.21399974822998 93.5469970703125 L 8.192000389099121 93.63099670410156 L 6.1479997634887695 93.79900360107422 L 4.0960001945495605 93.89986419677734 L 3.0759999752044678 93.94999694824219 L 0 94 L -3.0759999752044678 93.94999694824219 L -4.0960001945495605 93.89986419677734 L -6.1479997634887695 93.79900360107422 L -8.192000389099121 93.63099670410156 L -9.21399974822998 93.5469970703125 L -10.239999771118164 93.42912292480469 L -12.269000053405762 93.19599914550781 L -12.288000106811523 93.19317626953125 L -14.336000442504883 92.88896942138672 L -15.312000274658203 92.74400329589844 L -16.384000778198242 92.54915618896484 L -18.33799934387207 92.19400024414062 L -20.479999542236328 91.7309799194336 L -21.344999313354492 91.54399871826172 L -24.32900047302246 90.7969970703125 L -24.576000213623047 90.7264404296875 L -26.726905822753906 90.11199951171875 L -27.28700065612793 89.9520034790039 L -28.672000885009766 89.50688934326172 L -30.21500015258789 89.01100158691406 L -32.768001556396484 88.09801483154297 L -33.11199951171875 87.9749984741211 L -35.97200012207031 86.84500122070312 L -37.883304595947266 86.01599884033203 L -38.79399871826172 85.62100219726562 L -40.959999084472656 84.5968017578125 L -41.57500076293945 84.30599975585938 L -42.23319625854492 83.96800231933594 L -43.007999420166016 83.57012176513672 L -44.31100082397461 82.9010009765625 L -45.055999755859375 82.48680114746094 L -46.07548904418945 81.91999816894531 L -47 81.40599822998047 L -49.152000427246094 80.11627197265625 L -49.63800048828125 79.82499694824219 L -52.2239990234375 78.15799713134766 L -52.7066764831543 77.8239974975586 L -53.24800109863281 77.44941711425781 L -54.75299835205078 76.40799713134766 L -55.604976654052734 75.7760009765625 L -57.2239990234375 74.57499694824219 L -57.34400177001953 74.4797592163086 L -58.291168212890625 73.72799682617188 L -59.632999420166016 72.66300201416016 L -60.79185485839844 71.68000030517578 L -61.439998626708984 71.13021087646484 L -61.979000091552734 70.6729965209961 L -63.127323150634766 69.63200378417969 L -64.25800323486328 68.60700225830078 L -65.31495666503906 67.58399963378906 L -65.53600311279297 67.37005615234375 L -66.46800231933594 66.46800231933594 M -76.05599975585938 33.38800048828125 L -75.72799682617188 33.066001892089844 L -75.55071258544922 32.768001556396484 L -75.49299621582031 32.67100143432617 L -75.36499786376953 32.22999954223633 L -75.35299682617188 31.770000457763672 L -75.45800018310547 31.32200050354004 L -75.6729965209961 30.916000366210938 L -75.98400115966797 30.57699966430664 L -76.37100219726562 30.32900047302246 L -76.80799865722656 30.18600082397461 L -77.26699829101562 30.158000946044922 L -77.71800231933594 30.24799919128418 L -77.8239974975586 30.299589157104492 L -78.13099670410156 30.448999404907227 L -78.4800033569336 30.74799919128418 L -78.74199676513672 31.125999450683594 L -78.9000015258789 31.558000564575195 L -78.94300079345703 32.01599884033203 L -78.86900329589844 32.46900177001953 L -78.73587036132812 32.768001556396484 L -78.68199920654297 32.888999938964844 L -78.3949966430664 33.24800109863281 L -78.0260009765625 33.52299880981445 L -77.5999984741211 33.69499969482422 L -77.14399719238281 33.75400161743164 L -76.90899658203125 33.73899841308594 L -76.6780014038086 33.69300079345703 L -76.45500183105469 33.617000579833984 L -76.05599975585938 33.38800048828125 M -65.40699768066406 -61.165000915527344 L -65.53600311279297 -60.99705505371094 L -65.7249984741211 -60.750999450683594 L -65.92500305175781 -60.268001556396484 L -65.99299621582031 -59.750999450683594 L -65.92500305175781 -59.233001708984375 L -65.7249984741211 -58.750999450683594 L -65.53600311279297 -58.50434875488281 L -65.40699768066406 -58.33599853515625 L -64.41517639160156 -57.34400177001953 L -61.439998626708984 -54.3682975769043 L -60.31990051269531 -53.24800109863281 L -59.750999450683594 -52.67900085449219 L -59.33599853515625 -52.36199951171875 L -58.854000091552734 -52.1619987487793 L -58.33599853515625 -52.09400177001953 L -57.819000244140625 -52.1619987487793 L -57.34400177001953 -52.35868835449219 L -57.33599853515625 -52.36199951171875 L -56.922000885009766 -52.67900085449219 L -52.67900085449219 -56.922000885009766 L -52.36199951171875 -57.33599853515625 L -52.35868835449219 -57.34400177001953 L -52.1619987487793 -57.819000244140625 L -52.09400177001953 -58.33599853515625 L -52.1619987487793 -58.854000091552734 L -52.36199951171875 -59.33599853515625 L -52.67900085449219 -59.750999450683594 L -53.24800109863281 -60.31990051269531 L -54.3682975769043 -61.439998626708984 L -57.34400177001953 -64.41517639160156 L -58.33599853515625 -65.40699768066406 L -58.50434875488281 -65.53600311279297 L -58.750999450683594 -65.7249984741211 L -59.233001708984375 -65.92500305175781 L -59.750999450683594 -65.99299621582031 L -60.268001556396484 -65.92500305175781 L -60.750999450683594 -65.7249984741211 L -60.99705505371094 -65.53600311279297 L -61.165000915527344 -65.40699768066406 L -61.439998626708984 -65.13200378417969 L -65.13200378417969 -61.439998626708984 L -65.40699768066406 -61.165000915527344 M -20.534000396728516 -34.75899887084961 L -20.55765151977539 -34.816001892089844 L -20.634000778198242 -35 L -20.792999267578125 -35.207000732421875 L -21 -35.36600112915039 L -21.240999221801758 -35.465999603271484 L -21.5 -35.5 L -21.759000778198242 -35.465999603271484 L -22 -35.36600112915039 L -22.207000732421875 -35.207000732421875 L -22.365999221801758 -35 L -22.44234848022461 -34.816001892089844 L -22.465999603271484 -34.75899887084961 L -22.5 -34.5 L -22.465999603271484 -34.24100112915039 L -22.365999221801758 -34 L -22.207000732421875 -33.792999267578125 L -22 -33.63399887084961 L -21.759000778198242 -33.534000396728516 L -21.5 -33.5 L -21.240999221801758 -33.534000396728516 L -21 -33.63399887084961 L -20.792999267578125 -33.792999267578125 L -20.634000778198242 -34 L -20.534000396728516 -34.24100112915039 L -20.5 -34.5 L -20.534000396728516 -34.75899887084961 M -20.792999267578125 -7.706999778747559 L -21 -7.866000175476074 L -21.240999221801758 -7.966000080108643 L -21.5 -8 L -21.759000778198242 -7.966000080108643 L -22 -7.866000175476074 L -22.207000732421875 -7.706999778747559 L -22.365999221801758 -7.5 L -22.465999603271484 -7.258999824523926 L -22.47794532775879 -7.168000221252441 L -22.5 -7 L -22.465999603271484 -6.741000175476074 L -22.365999221801758 -6.5 L -22.207000732421875 -6.293000221252441 L -22.013019561767578 -6.144000053405762 L -22 -6.133999824523926 L -21.759000778198242 -6.033999919891357 L -21.5 -6 L -21.240999221801758 -6.033999919891357 L -21 -6.133999824523926 L -20.986980438232422 -6.144000053405762 L -20.792999267578125 -6.293000221252441 L -20.634000778198242 -6.5 L -20.534000396728516 -6.741000175476074 L -20.5 -7 L -20.52205467224121 -7.168000221252441 L -20.534000396728516 -7.258999824523926 L -20.634000778198242 -7.5 L -20.792999267578125 -7.706999778747559 M -33.345001220703125 -76.00199890136719 L -32.95399856567383 -75.64700317382812 L -32.768001556396484 -75.55887603759766 L -32.47700119018555 -75.4209976196289 L -31.95400047302246 -75.34400177001953 L -31.5 -75.4020004272461 L -31.075000762939453 -75.572998046875 L -30.707000732421875 -75.84600067138672 L -30.41900062561035 -76.2030029296875 L -30.23200035095215 -76.62100219726562 L -30.155000686645508 -77.072998046875 L -30.195999145507812 -77.52999877929688 L -30.301048278808594 -77.8239974975586 L -30.350000381469727 -77.96099853515625 L -30.608999252319336 -78.33999633789062 L -30.95400047302246 -78.64099884033203 L -31.36400032043457 -78.84500122070312 L -31.812999725341797 -78.93800354003906 L -32.270999908447266 -78.91600036621094 L -32.70800018310547 -78.77899932861328 L -32.768001556396484 -78.74126434326172 L -33.09600067138672 -78.53500366210938 L -33.40999984741211 -78.2020034790039 L -33.630001068115234 -77.80000305175781 L -33.742000579833984 -77.35600280761719 L -33.73699951171875 -76.89700317382812 L -33.617000579833984 -76.45500183105469 L -33.345001220703125 -76.00199890136719 M -78.61399841308594 -32.992000579833984 L -78.73262023925781 -32.768001556396484 L -78.8290023803711 -32.58599853515625 L -78.93499755859375 -32.13800048828125 L -78.9229965209961 -31.679000854492188 L -78.79499816894531 -31.23699951171875 L -78.55899810791016 -30.841999053955078 L -78.23200225830078 -30.520000457763672 L -77.83300018310547 -30.291000366210938 L -77.8239974975586 -30.287933349609375 L -77.61000061035156 -30.21500015258789 L -77.37899780273438 -30.16900062561035 L -77.14399719238281 -30.15399932861328 L -76.68800354003906 -30.21299934387207 L -76.26200103759766 -30.385000228881836 L -75.89299774169922 -30.65999984741211 L -75.60600280761719 -31.018999099731445 L -75.41899871826172 -31.43899917602539 L -75.34500122070312 -31.89299964904785 L -75.38800048828125 -32.349998474121094 L -75.54087829589844 -32.768001556396484 L -75.5459976196289 -32.78200149536133 L -75.80799865722656 -33.15999984741211 L -76.15699768066406 -33.45899963378906 L -76.56999969482422 -33.65999984741211 L -77.02100372314453 -33.75 L -77.4800033569336 -33.72200012207031 L -77.91699981689453 -33.58000183105469 L -78.30400085449219 -33.33100128173828 L -78.61399841308594 -32.992000579833984 M -1.7389999628067017 -83.03399658203125 L -1.559000015258789 -82.5999984741211 L -1.2730000019073486 -82.22699737548828 L -0.8999999761581421 -81.94100189208984 L -0.8493666648864746 -81.91999816894531 L -0.4659999907016754 -81.76100158691406 L 0 -81.69999694824219 L 0.4659999907016754 -81.76100158691406 L 0.8493666648864746 -81.91999816894531 L 0.8999999761581421 -81.94100189208984 L 1.2730000019073486 -82.22699737548828 L 1.559000015258789 -82.5999984741211 L 1.7389999628067017 -83.03399658203125 L 1.7999999523162842 -83.5 L 1.7389999628067017 -83.96600341796875 L 1.559000015258789 -84.4000015258789 L 1.2730000019073486 -84.77300262451172 L 0.8999999761581421 -85.05899810791016 L 0.4659999907016754 -85.23899841308594 L 0 -85.30000305175781 L -0.4659999907016754 -85.23899841308594 L -0.8999999761581421 -85.05899810791016 L -1.2730000019073486 -84.77300262451172 L -1.559000015258789 -84.4000015258789 L -1.7389999628067017 -83.96600341796875 L -1.7999999523162842 -83.5 L -1.7389999628067017 -83.03399658203125 M 75.90699768066406 33.262001037597656 L 76.27300262451172 33.52899932861328 L 76.69400024414062 33.696998596191406 L 77.14399719238281 33.75400161743164 L 77.63300323486328 33.68600082397461 L 78.08399963378906 33.48899841308594 L 78.46600341796875 33.17599868774414 L 78.74800109863281 32.770999908447266 L 78.74903869628906 32.768001556396484 L 78.90899658203125 32.30500030517578 L 78.93800354003906 31.812999725341797 L 78.83300018310547 31.33099937438965 L 78.5999984741211 30.895999908447266 L 78.25800323486328 30.540000915527344 L 77.83300018310547 30.291000366210938 L 77.39600372314453 30.172000885009766 L 76.94200134277344 30.165000915527344 L 76.50199890136719 30.27199935913086 L 76.10199737548828 30.486000061035156 L 75.76899719238281 30.792999267578125 L 75.52200317382812 31.17300033569336 L 75.37899780273438 31.60300064086914 L 75.34700012207031 32.05500030517578 L 75.42900085449219 32.500999450683594 L 75.5530776977539 32.768001556396484 L 75.62000274658203 32.9119987487793 L 75.90699768066406 33.262001037597656 M -81.94100189208984 -0.8999999761581421 L -82.22699737548828 -1.2730000019073486 L -82.5999984741211 -1.559000015258789 L -83.03399658203125 -1.7389999628067017 L -83.5 -1.7999999523162842 L -83.96600341796875 -1.7389999628067017 L -84.4000015258789 -1.559000015258789 L -84.77300262451172 -1.2730000019073486 L -85.05899810791016 -0.8999999761581421 L -85.23899841308594 -0.46599999070167536 L -85.30000305175781 4.440892164675075e-17 L -85.23899841308594 0.46599999070167547 L -85.05899810791016 0.8999999761581421 L -84.77300262451172 1.2730000019073486 L -84.4000015258789 1.559000015258789 L -83.96600341796875 1.7389999628067017 L -83.5 1.7999999523162842 L -83.03399658203125 1.7389999628067017 L -82.5999984741211 1.559000015258789 L -82.22699737548828 1.2730000019073486 L -81.94100189208984 0.8999999761581421 L -81.91999816894531 0.8493666648864746 L -81.76100158691406 0.46599999070167547 L -81.69999694824219 4.440892164675075e-17 L -81.76100158691406 -0.46599999070167536 L -81.91999816894531 -0.8493666648864746 L -81.94100189208984 -0.8999999761581421 M 29.292999267578125 -39.292999267578125 L 29.5 -39.13399887084961 L 29.740999221801758 -39.034000396728516 L 30 -39 L 30.259000778198242 -39.034000396728516 L 30.5 -39.13399887084961 L 30.707000732421875 -39.292999267578125 L 30.719999313354492 -39.3099250793457 L 30.865999221801758 -39.5 L 30.965999603271484 -39.74100112915039 L 31 -40 L 30.965999603271484 -40.25899887084961 L 30.865999221801758 -40.5 L 30.719999313354492 -40.6900749206543 L 30.707000732421875 -40.707000732421875 L 30.5 -40.86600112915039 L 30.273460388183594 -40.959999084472656 L 30.259000778198242 -40.965999603271484 L 30 -41 L 29.740999221801758 -40.965999603271484 L 29.726539611816406 -40.959999084472656 L 29.5 -40.86600112915039 L 29.292999267578125 -40.707000732421875 L 29.134000778198242 -40.5 L 29.034000396728516 -40.25899887084961 L 29 -40 L 29.00840187072754 -39.93600082397461 L 29.034000396728516 -39.74100112915039 L 29.134000778198242 -39.5 L 29.292999267578125 -39.292999267578125 M -30.17099952697754 77.39099884033203 L -30.16699981689453 76.93199920654297 L -30.277999877929688 76.48799896240234 L -30.49799919128418 76.08599853515625 L -30.812000274658203 75.75299835205078 L -31.200000762939453 75.50900268554688 L -31.63800048828125 75.37200164794922 L -32.095001220703125 75.3489990234375 L -32.54399871826172 75.44300079345703 L -32.768001556396484 75.55445098876953 L -32.95399856567383 75.64700317382812 L -33.29999923706055 75.947998046875 L -33.55799865722656 76.3270034790039 L -33.71200180053711 76.75800323486328 L -33.75299835205078 77.21499633789062 L -33.676998138427734 77.66600036621094 L -33.48899841308594 78.08399963378906 L -33.20199966430664 78.44100189208984 L -32.83399963378906 78.71399688720703 L -32.768001556396484 78.74070739746094 L -32.409000396728516 78.88600158691406 L -31.95400047302246 78.94400024414062 L -31.43199920654297 78.86599731445312 L -30.95400047302246 78.64099884033203 L -30.562999725341797 78.28600311279297 L -30.291000366210938 77.83300018310547 L -30.17099952697754 77.39099884033203 M 28.134000778198242 7.5 L 28.034000396728516 7.741000175476074 L 28 8 L 28.025203704833984 8.192000389099121 L 28.034000396728516 8.258999824523926 L 28.134000778198242 8.5 L 28.292999267578125 8.706999778747559 L 28.5 8.866000175476074 L 28.672000885009766 8.937369346618652 L 28.740999221801758 8.965999603271484 L 29 9 L 29.259000778198242 8.965999603271484 L 29.5 8.866000175476074 L 29.707000732421875 8.706999778747559 L 29.865999221801758 8.5 L 29.965999603271484 8.258999824523926 L 29.974796295166016 8.192000389099121 L 30 8 L 29.965999603271484 7.741000175476074 L 29.865999221801758 7.5 L 29.707000732421875 7.293000221252441 L 29.5 7.133999824523926 L 29.259000778198242 7.033999919891357 L 29 7 L 28.740999221801758 7.033999919891357 L 28.672000885009766 7.062630653381348 L 28.5 7.133999824523926 L 28.292999267578125 7.293000221252441 L 28.134000778198242 7.5 M 65.7249984741211 58.750999450683594 L 65.53600311279297 58.50434875488281 L 65.40699768066406 58.33599853515625 L 64.41517639160156 57.34400177001953 L 61.439998626708984 54.3682975769043 L 60.31990051269531 53.24800109863281 L 59.750999450683594 52.67900085449219 L 59.33599853515625 52.36199951171875 L 58.854000091552734 52.1619987487793 L 58.33599853515625 52.09400177001953 L 57.819000244140625 52.1619987487793 L 57.34400177001953 52.35868835449219 L 57.33599853515625 52.36199951171875 L 56.922000885009766 52.67900085449219 L 52.67900085449219 56.922000885009766 L 52.36199951171875 57.33599853515625 L 52.35868835449219 57.34400177001953 L 52.1619987487793 57.819000244140625 L 52.09400177001953 58.33599853515625 L 52.1619987487793 58.854000091552734 L 52.36199951171875 59.33599853515625 L 52.67900085449219 59.750999450683594 L 53.24800109863281 60.31990051269531 L 54.3682975769043 61.439998626708984 L 57.34400177001953 64.41517639160156 L 58.33599853515625 65.40699768066406 L 58.50434875488281 65.53600311279297 L 58.750999450683594 65.7249984741211 L 59.233001708984375 65.92500305175781 L 59.750999450683594 65.99299621582031 L 60.268001556396484 65.92500305175781 L 60.750999450683594 65.7249984741211 L 60.99705505371094 65.53600311279297 L 61.165000915527344 65.40699768066406 L 61.439998626708984 65.13200378417969 L 65.13200378417969 61.439998626708984 L 65.40699768066406 61.165000915527344 L 65.53600311279297 60.99705505371094 L 65.7249984741211 60.750999450683594 L 65.92500305175781 60.268001556396484 L 65.99299621582031 59.750999450683594 L 65.92500305175781 59.233001708984375 L 65.7249984741211 58.750999450683594 M 65.40699768066406 -58.33599853515625 L 65.53600311279297 -58.50434875488281 L 65.7249984741211 -58.750999450683594 L 65.92500305175781 -59.233001708984375 L 65.99299621582031 -59.750999450683594 L 65.92500305175781 -60.268001556396484 L 65.7249984741211 -60.750999450683594 L 65.53600311279297 -60.99705505371094 L 65.40699768066406 -61.165000915527344 L 65.13200378417969 -61.439998626708984 L 61.439998626708984 -65.13200378417969 L 61.165000915527344 -65.40699768066406 L 60.99705505371094 -65.53600311279297 L 60.750999450683594 -65.7249984741211 L 60.268001556396484 -65.92500305175781 L 59.750999450683594 -65.99299621582031 L 59.233001708984375 -65.92500305175781 L 58.750999450683594 -65.7249984741211 L 58.50434875488281 -65.53600311279297 L 58.33599853515625 -65.40699768066406 L 57.34400177001953 -64.41517639160156 L 54.3682975769043 -61.439998626708984 L 53.24800109863281 -60.31990051269531 L 52.67900085449219 -59.750999450683594 L 52.36199951171875 -59.33599853515625 L 52.1619987487793 -58.854000091552734 L 52.09400177001953 -58.33599853515625 L 52.1619987487793 -57.819000244140625 L 52.35868835449219 -57.34400177001953 L 52.36199951171875 -57.33599853515625 L 52.67900085449219 -56.922000885009766 L 56.922000885009766 -52.67900085449219 L 57.33599853515625 -52.36199951171875 L 57.34400177001953 -52.35868835449219 L 57.819000244140625 -52.1619987487793 L 58.33599853515625 -52.09400177001953 L 58.854000091552734 -52.1619987487793 L 59.33599853515625 -52.36199951171875 L 59.750999450683594 -52.67900085449219 L 60.31990051269531 -53.24800109863281 L 61.439998626708984 -54.3682975769043 L 64.41517639160156 -57.34400177001953 L 65.40699768066406 -58.33599853515625 M 83.03399658203125 -1.7389999628067017 L 82.5999984741211 -1.559000015258789 L 82.22699737548828 -1.2730000019073486 L 81.94100189208984 -0.8999999761581421 L 81.91999816894531 -0.8493666648864746 L 81.76100158691406 -0.46599999070167536 L 81.69999694824219 4.440892164675075e-17 L 81.76100158691406 0.46599999070167547 L 81.91999816894531 0.8493666648864746 L 81.94100189208984 0.8999999761581421 L 82.22699737548828 1.2730000019073486 L 82.5999984741211 1.559000015258789 L 83.03399658203125 1.7389999628067017 L 83.5 1.7999999523162842 L 83.96600341796875 1.7389999628067017 L 84.4000015258789 1.559000015258789 L 84.77300262451172 1.2730000019073486 L 85.05899810791016 0.8999999761581421 L 85.23899841308594 0.46599999070167547 L 85.30000305175781 4.440892164675075e-17 L 85.23899841308594 -0.46599999070167536 L 85.05899810791016 -0.8999999761581421 L 84.77300262451172 -1.2730000019073486 L 84.4000015258789 -1.559000015258789 L 83.96600341796875 -1.7389999628067017 L 83.5 -1.7999999523162842 L 83.03399658203125 -1.7389999628067017 M 33.39099884033203 76.05899810791016 L 33.071998596191406 75.73300170898438 L 32.768001556396484 75.54951477050781 L 32.680999755859375 75.49700164794922 L 32.24399948120117 75.36699676513672 L 31.788000106811523 75.35199737548828 L 31.343000411987305 75.45099639892578 L 30.937000274658203 75.65899658203125 L 30.59600067138672 75.96199798583984 L 30.343000411987305 76.34200286865234 L 30.19300079345703 76.77200317382812 L 30.1560001373291 77.22699737548828 L 30.235000610351562 77.6760025024414 L 30.3022403717041 77.8239974975586 L 30.423999786376953 78.09200286865234 L 30.711000442504883 78.44599914550781 L 31.077999114990234 78.71600341796875 L 31.50200080871582 78.88600158691406 L 31.95400047302246 78.94400024414062 L 32.45199966430664 78.8740005493164 L 32.768001556396484 78.73249053955078 L 32.9119987487793 78.66799926757812 L 33.29600143432617 78.34300231933594 L 33.57600021362305 77.92500305175781 L 33.729000091552734 77.44499969482422 L 33.74300003051758 76.94200134277344 L 33.617000579833984 76.45500183105469 L 33.39099884033203 76.05899810791016 M 75.3489990234375 -32.095001220703125 L 75.37899780273438 -31.60300064086914 L 75.54000091552734 -31.136999130249023 L 75.8219985961914 -30.73200035095215 L 76.2030029296875 -30.41900062561035 L 76.65499877929688 -30.222000122070312 L 77.14399719238281 -30.15399932861328 L 77.59400177001953 -30.211000442504883 L 77.8239974975586 -30.30278205871582 L 78.01499938964844 -30.378999710083008 L 78.38099670410156 -30.645999908447266 L 78.66799926757812 -30.996000289916992 L 78.85900115966797 -31.406999588012695 L 78.94100189208984 -31.85300064086914 L 78.90899658203125 -32.30500030517578 L 78.76599884033203 -32.73500061035156 L 78.74455261230469 -32.768001556396484 L 78.51899719238281 -33.1150016784668 L 78.18599700927734 -33.422000885009766 L 77.78600311279297 -33.63600158691406 L 77.34500122070312 -33.74300003051758 L 76.89199829101562 -33.736000061035156 L 76.45500183105469 -33.617000579833984 L 76.02999877929688 -33.36800003051758 L 75.68800354003906 -33.012001037597656 L 75.55730438232422 -32.768001556396484 L 75.45500183105469 -32.57699966430664 L 75.3489990234375 -32.095001220703125 M -59.750999450683594 52.67900085449219 L -60.31990051269531 53.24800109863281 L -61.439998626708984 54.3682975769043 L -64.41517639160156 57.34400177001953 L -65.40699768066406 58.33599853515625 L -65.53600311279297 58.50434875488281 L -65.7249984741211 58.750999450683594 L -65.92500305175781 59.233001708984375 L -65.99299621582031 59.750999450683594 L -65.92500305175781 60.268001556396484 L -65.7249984741211 60.750999450683594 L -65.53600311279297 60.99705505371094 L -65.40699768066406 61.165000915527344 L -65.13200378417969 61.439998626708984 L -61.439998626708984 65.13200378417969 L -61.165000915527344 65.40699768066406 L -60.99705505371094 65.53600311279297 L -60.750999450683594 65.7249984741211 L -60.268001556396484 65.92500305175781 L -59.750999450683594 65.99299621582031 L -59.233001708984375 65.92500305175781 L -58.750999450683594 65.7249984741211 L -58.50434875488281 65.53600311279297 L -58.33599853515625 65.40699768066406 L -57.34400177001953 64.41517639160156 L -54.3682975769043 61.439998626708984 L -53.24800109863281 60.31990051269531 L -52.67900085449219 59.750999450683594 L -52.36199951171875 59.33599853515625 L -52.1619987487793 58.854000091552734 L -52.09400177001953 58.33599853515625 L -52.1619987487793 57.819000244140625 L -52.35868835449219 57.34400177001953 L -52.36199951171875 57.33599853515625 L -52.67900085449219 56.922000885009766 L -56.922000885009766 52.67900085449219 L -57.33599853515625 52.36199951171875 L -57.34400177001953 52.35868835449219 L -57.819000244140625 52.1619987487793 L -58.33599853515625 52.09400177001953 L -58.854000091552734 52.1619987487793 L -59.33599853515625 52.36199951171875 L -59.750999450683594 52.67900085449219 M 0.4659999907016754 81.76100158691406 L 0 81.69999694824219 L -0.4659999907016754 81.76100158691406 L -0.8493666648864746 81.91999816894531 L -0.8999999761581421 81.94100189208984 L -1.2730000019073486 82.22699737548828 L -1.559000015258789 82.5999984741211 L -1.7389999628067017 83.03399658203125 L -1.7999999523162842 83.5 L -1.7389999628067017 83.96600341796875 L -1.559000015258789 84.4000015258789 L -1.2730000019073486 84.77300262451172 L -0.8999999761581421 85.05899810791016 L -0.4659999907016754 85.23899841308594 L 0 85.30000305175781 L 0.4659999907016754 85.23899841308594 L 0.8999999761581421 85.05899810791016 L 1.2730000019073486 84.77300262451172 L 1.559000015258789 84.4000015258789 L 1.7389999628067017 83.96600341796875 L 1.7999999523162842 83.5 L 1.7389999628067017 83.03399658203125 L 1.559000015258789 82.5999984741211 L 1.2730000019073486 82.22699737548828 L 0.8999999761581421 81.94100189208984 L 0.8493666648864746 81.91999816894531 L 0.4659999907016754 81.76100158691406 M 31.663999557495117 -78.91999816894531 L 31.226999282836914 -78.79100036621094 L 30.836000442504883 -78.55500030517578 L 30.51799964904785 -78.22899627685547 L 30.291000366210938 -77.83300018310547 L 30.165000915527344 -77.34500122070312 L 30.179000854492188 -76.84200286865234 L 30.332000732421875 -76.36299896240234 L 30.61199951171875 -75.94499969482422 L 30.996000289916992 -75.62000274658203 L 31.45599937438965 -75.41400146484375 L 31.95400047302246 -75.34400177001953 L 32.40700149536133 -75.4020004272461 L 32.768001556396484 -75.54622650146484 L 32.83000183105469 -75.57099914550781 L 33.196998596191406 -75.84200286865234 L 33.48400115966797 -76.19599914550781 L 33.67399978637695 -76.61100006103516 L 33.75199890136719 -77.06099700927734 L 33.71500015258789 -77.51499938964844 L 33.564998626708984 -77.94599914550781 L 33.3120002746582 -78.32599639892578 L 32.97100067138672 -78.62899780273438 L 32.768001556396484 -78.73300170898438 L 32.564998626708984 -78.83699798583984 L 32.119998931884766 -78.93599700927734 L 31.663999557495117 -78.91999816894531 z" fill="none" stroke="rgb(0,0,255)" stroke-width="0.01mm" />
</svg>